<svg width="99" height="97" viewBox="0 0 99 97" fill="none" xmlns="http://www.w3.org/2000/svg">
<path d="M31.2721 50.9944L5.87619 31.4746L0 35.9324L29.1108 58.2889L31.2721 50.9944Z" fill="#D2232A"/>
<path d="M33.5007 43.6324L11.8195 27.0845L5.94336 31.4747L31.3393 50.9269L33.5007 43.6324Z" fill="#00417B"/>
<path d="M17.7636 22.627L11.8198 27.0848L33.5009 43.6326L35.6623 36.3381L32.9606 34.2442L17.7636 22.627Z" fill="white"/>
<path d="M64.8408 50.9944L90.2368 31.4746L96.1805 35.9324L67.0022 58.2889L64.8408 50.9944Z" fill="#D2232A"/>
<path d="M62.6792 43.6324L84.2928 27.0845L90.2365 31.4747L64.8406 50.9269L62.6792 43.6324Z" fill="#00417B"/>
<path d="M78.4168 22.627L84.293 27.0848L62.6794 43.6326L60.5181 36.3381L63.2198 34.2442L78.4168 22.627Z" fill="white"/>
<path d="M78.0115 22.3565L72.1353 17.8987L59.9777 17.6286L55.7901 5.7411L48.0902 0L40.3229 5.80865L36.1352 17.6286L24.1127 17.8987L18.1689 22.3565L40.3904 21.7487L48.0902 0.0675424L55.7225 21.7487L78.0115 22.3565ZM29.1784 58.2891H66.9346L48.0902 45.3209L29.1784 58.2891Z" fill="#35394C"/>
<path d="M13.6714 92.7115V96.3095H16.5757C16.8489 96.3283 17.1219 96.2702 17.3639 96.142C17.4528 96.0847 17.5248 96.0049 17.5728 95.9107C17.6207 95.8165 17.6428 95.7112 17.6368 95.6057V95.145C17.6407 95.0533 17.6253 94.9617 17.5915 94.8763C17.5578 94.7909 17.5065 94.7136 17.4409 94.6493C17.317 94.5343 17.1571 94.4656 16.9884 94.4548C17.1591 94.4352 17.3207 94.3675 17.4544 94.2596C17.5064 94.2047 17.5468 94.14 17.5732 94.0692C17.5997 93.9984 17.6117 93.923 17.6084 93.8476V93.4085C17.6166 93.3135 17.6047 93.2178 17.5735 93.1276C17.5423 93.0374 17.4925 92.9548 17.4274 92.8851C17.2699 92.7641 17.0747 92.7026 16.8763 92.7115H13.6714ZM16.394 94.7398C16.5125 94.7239 16.6325 94.7539 16.7297 94.8235C16.7828 94.8908 16.8077 94.976 16.7993 95.0613V95.3335C16.8075 95.4185 16.7826 95.5035 16.7297 95.5706C16.6327 95.6405 16.5125 95.6704 16.394 95.6543H14.5082V94.7398H16.394ZM16.4575 93.2964C16.537 93.2924 16.6161 93.3092 16.6871 93.345C16.7216 93.3671 16.7492 93.3985 16.7666 93.4355C16.7841 93.4726 16.7907 93.5138 16.7858 93.5544V93.8969C16.788 93.9348 16.7816 93.9728 16.767 94.0079C16.7523 94.0431 16.7299 94.0744 16.7013 94.0995C16.6428 94.1421 16.5708 94.162 16.4987 94.1555H14.5082V93.2964H16.4575ZM18.6986 92.7115V96.3095H19.5361V94.9066H21.7852C22.0043 94.9178 22.2214 94.8594 22.4053 94.7398C22.4707 94.6687 22.5211 94.5852 22.5536 94.4942C22.5861 94.4033 22.6 94.3067 22.5944 94.2103V93.4072C22.6053 93.3065 22.592 93.2047 22.5556 93.1103C22.5192 93.0158 22.4607 92.9314 22.385 92.8641C22.2166 92.7509 22.0154 92.697 21.8129 92.7108L18.6986 92.7115ZM21.38 93.3241C21.4787 93.3136 21.5783 93.3331 21.6657 93.3802C21.6983 93.4084 21.7236 93.4441 21.7395 93.4842C21.7553 93.5243 21.7613 93.5676 21.7569 93.6105V94.009C21.7613 94.0518 21.7553 94.095 21.7395 94.135C21.7236 94.175 21.6983 94.2105 21.6657 94.2386C21.5782 94.286 21.4782 94.3056 21.3793 94.2947H19.5354V93.3241H21.38ZM23.3279 92.7115V96.3095H27.0488V95.6543H24.1648V94.7398H25.8263V94.1272H24.1648V93.3241H27.0137V92.7115H23.3279ZM32.0774 92.7115L30.4151 94.887L28.7178 92.7115H28.0343V96.3095H28.7178V94.0853L28.6969 93.7017C28.7504 93.8348 28.8232 93.9592 28.913 94.0711L30.2686 95.8772H30.4361L31.791 94.0785C31.8761 93.9621 31.9465 93.8355 32.0004 93.7017C31.9823 93.8287 31.9732 93.9569 31.9733 94.0853V96.3095H32.7399V92.7115H32.0774ZM37.6482 96.3095V92.7115H34.5548C34.3469 92.6965 34.1396 92.7476 33.9625 92.8574C33.8863 92.9262 33.8271 93.0117 33.7896 93.1072C33.7521 93.2027 33.7373 93.3056 33.7463 93.4079V94.267C33.7385 94.363 33.7519 94.4596 33.7856 94.5498C33.8194 94.6401 33.8726 94.7218 33.9415 94.7891C34.1229 94.9088 34.3388 94.9651 34.5555 94.9492H35.0161L33.516 96.3095H34.7162L36.0218 94.9492H36.8121V96.3095H37.6482ZM36.8114 93.3241V94.3366H34.8763C34.7961 94.3372 34.7169 94.3179 34.646 94.2805C34.6136 94.2523 34.5885 94.2167 34.5727 94.1767C34.557 94.1367 34.5511 94.0936 34.5555 94.0509V93.6105C34.551 93.5676 34.5569 93.5244 34.5727 93.4843C34.5884 93.4442 34.6136 93.4085 34.646 93.3802C34.7206 93.3387 34.8053 93.3193 34.8905 93.3241H36.8114ZM40.0028 92.7115V96.3095H40.8396V93.366H43.3542V96.3095H44.1918V92.7115H40.0028ZM45.3994 95.4591C45.376 95.7012 45.446 95.9431 45.5953 96.1352C45.7988 96.2765 46.047 96.3385 46.293 96.3095H48.9474C49.1932 96.3384 49.4411 96.2764 49.6445 96.1352C49.7937 95.9431 49.8638 95.7012 49.8403 95.4591V93.5612C49.8638 93.3193 49.7937 93.0776 49.6445 92.8857C49.4412 92.7444 49.1933 92.6824 48.9474 92.7115H46.293C46.0469 92.6822 45.7987 92.7442 45.5953 92.8857C45.446 93.0776 45.3759 93.3193 45.3994 93.5612V95.4591ZM46.2369 93.366H49.0028V95.6543H46.2369V93.366ZM51.0487 92.7108V96.3095H53.9395C54.236 96.3311 54.5317 96.2578 54.7838 96.1001C54.8554 96.0399 54.9122 95.9639 54.9497 95.8782C54.9872 95.7924 55.0044 95.6992 54.9999 95.6057V94.831C55.0055 94.7293 54.987 94.6277 54.946 94.5345C54.9049 94.4413 54.8424 94.3591 54.7635 94.2947C54.556 94.1495 54.3038 94.0825 54.0516 94.1056H51.8862V93.3666H54.7635V92.7115L51.0487 92.7108ZM53.8348 94.6912C53.9279 94.6833 54.0211 94.7053 54.1009 94.754C54.1329 94.7857 54.1576 94.824 54.1732 94.8662C54.1889 94.9084 54.1951 94.9536 54.1914 94.9985V95.3612C54.1938 95.4005 54.1883 95.44 54.175 95.4771C54.1618 95.5143 54.1412 95.5484 54.1144 95.5773C54.0166 95.6387 53.9011 95.6658 53.7861 95.6543H51.8862V94.6912H53.8348ZM56.0623 92.7115V96.3095H59.7839V95.6543H56.8999V94.7398H58.5614V94.1272H56.8999V93.3241H59.7481V92.7115H56.0623ZM63.854 92.7115H63.0165V94.3291L61.411 92.7115H60.406L62.1932 94.4061L60.0703 96.3095H61.2435L63.0172 94.6088V96.3095H63.8547V94.6088L65.6277 96.3095H66.8009L64.678 94.4061L66.4659 92.7108H65.4602L63.854 94.3291V92.7115ZM68.351 92.7115L66.8637 95.6543H66.4314V96.9998H67.2264V96.3095H70.3131V96.9998H71.1087V95.6543H70.6765L69.1615 92.7115H68.351ZM67.6033 95.6969L68.7144 93.4369L69.8525 95.6962L67.6033 95.6969ZM72.9945 92.7115L70.9548 96.3095H71.8004L72.2124 95.528H74.5028L74.9283 96.3095H75.8712L73.8044 92.7115H72.9945ZM72.5548 94.8728L73.364 93.4092L74.1468 94.8735L72.5548 94.8728ZM77.6306 93.3666H79.2854V92.7115H75.1383V93.3666H76.7931V96.3095H77.6306V93.3666ZM80.591 92.7115H79.7542V96.3095H82.645C82.9415 96.3312 83.2373 96.2579 83.4893 96.1001C83.5609 96.0399 83.6177 95.9639 83.6552 95.8782C83.6927 95.7924 83.7099 95.6992 83.7054 95.6057V94.7053C83.7135 94.5337 83.6532 94.3659 83.5379 94.2386C83.4117 94.1409 83.2665 94.0706 83.1116 94.0322C82.9567 93.9939 82.7954 93.9882 82.6382 94.0157H80.5917L80.591 92.7115ZM82.5403 94.6006C82.6332 94.5931 82.7261 94.6151 82.8057 94.6635C82.8378 94.6951 82.8624 94.7335 82.8781 94.7757C82.8937 94.8179 82.8999 94.8631 82.8963 94.908V95.3612C82.8988 95.4005 82.8932 95.44 82.88 95.4772C82.8668 95.5143 82.8461 95.5484 82.8193 95.5773C82.7214 95.6387 82.6059 95.6658 82.491 95.6543H80.591V94.6006H82.5403ZM84.6908 94.8452H85.2487L85.5068 92.7108H84.4328L84.6908 94.8452ZM84.6908 95.3125C84.4328 95.3125 84.4396 95.3895 84.4396 95.5706V96.0515C84.4396 96.2953 84.5159 96.3095 84.6071 96.3095H85.2906C85.5068 96.3095 85.5142 96.2257 85.5142 96.065V95.5571C85.5142 95.3125 85.4163 95.3125 85.3318 95.3125H84.6908ZM28.5847 64.1681V69.2547H29.7687V65.0941H33.3816V64.1681H28.5847ZM34.261 64.1681V69.2547H35.4443V67.273H38.6249C38.9352 67.2888 39.2425 67.2061 39.503 67.0366C39.595 66.9358 39.666 66.8176 39.7117 66.689C39.7574 66.5603 39.7769 66.4238 39.7691 66.2876V65.1528C39.7845 65.0105 39.7657 64.8666 39.7143 64.733C39.6628 64.5994 39.5802 64.4801 39.4732 64.3849C39.2351 64.2247 38.9504 64.1484 38.6641 64.1681H34.261ZM38.0522 65.0346C38.192 65.0192 38.3333 65.0465 38.4574 65.113C38.5035 65.153 38.5392 65.2036 38.5616 65.2604C38.5839 65.3172 38.5922 65.3785 38.5857 65.4392V66.0018C38.5921 66.0624 38.5837 66.1237 38.5614 66.1803C38.5391 66.237 38.5034 66.2874 38.4574 66.3274C38.3334 66.3941 38.1921 66.4217 38.0522 66.4064H35.445V65.0346H38.0522ZM42.0297 64.1681H40.8856V65.9917C40.8508 66.337 40.9494 66.6826 41.1611 66.9576C41.4174 67.1284 41.7222 67.2114 42.0297 67.194H45.5453V68.3287H42.0297V67.6776L40.8856 67.8951V68.0531C40.8523 68.395 40.9509 68.7366 41.1611 69.0082C41.4253 69.1946 41.7467 69.2819 42.0689 69.2547H45.6142C45.9165 69.2689 46.2149 69.1821 46.4625 69.0082C46.6549 68.7806 46.7534 68.4884 46.7381 68.1909V64.1681H45.5453V66.3673H42.0297V64.1681ZM48.7536 64.1681V69.2547H49.9369V65.0941H53.4923V69.2547H54.6757V64.1681H48.7536ZM56.6905 64.1681V69.2547H57.8745V65.0941H61.4292V69.2547H62.6126V64.1681H56.6905ZM66.5328 64.1681L63.65 69.2547H64.8449L65.4271 68.1504H68.6651L69.2669 69.2547H70.6002L67.6783 64.1681H66.5328ZM65.9114 67.225L67.0555 65.1542L68.1612 67.225H65.9114ZM14.3671 78.5208C14.3671 75.295 13.2141 74.0022 10.1619 74.0022H1.04297V86.3004H4.32553V83.1461H10.1612C13.6032 83.1461 14.3671 81.9756 14.3671 78.5208ZM10.9953 78.5208C10.9953 80.0979 10.7995 80.2925 9.50468 80.2925H4.32553V76.8546H9.50603C10.8015 76.8546 10.9967 77.2443 10.9967 78.5208M30.3003 81.8871V78.4141C30.3003 74.6223 27.6743 73.9131 24.9597 73.9131H20.8788C18.0583 73.9131 15.5565 74.6223 15.5565 78.4141V81.8871C15.5565 85.6796 18.04 86.4064 20.8788 86.4064H24.9597C27.7985 86.4064 30.3003 85.6797 30.3003 81.8878M26.9293 81.5332C26.9293 83.3582 26.1485 83.5527 24.9597 83.5527H20.8788C19.6901 83.5527 18.9275 83.3582 18.9275 81.5332V78.7687C18.9275 76.943 19.6908 76.7661 20.8788 76.7661H24.9597C26.06 76.7661 26.9293 76.943 26.9293 78.7687V81.5332ZM47.5256 88.6069V83.4467H46.3551V74.0022H33.6882V78.1845C33.6882 81.9236 32.8007 82.6504 31.949 83.4474H31.1331V88.6076H34.4157V86.301H44.2444V88.6076L47.5256 88.6069ZM43.0733 83.4467H35.6031C36.2062 82.8442 36.9694 81.7987 36.9694 78.1838V76.8546H43.0733V83.4467ZM63.2813 86.3004V74.0016H59.9987L51.926 82.26H51.8902L51.9794 74.0016H48.6968V86.3004H51.9794L60.0514 78.0244H60.0872L59.998 86.3004H63.2813ZM79.8697 86.3004V74.0016H76.5871V78.6269H68.5496V74.0016H65.269V86.3004H68.5516V81.4792H76.5891V86.2997L79.8697 86.3004ZM98.3033 86.3004L91.9517 74.0016H87.2852L80.9341 86.3004H84.5882L85.6891 84.191H93.5484L94.6304 86.3004H98.3033ZM92.2529 81.6399H87.0197L89.6626 76.5884L92.2529 81.6399Z" fill="#35394C"/>
</svg>
