<svg width="159" height="35" viewBox="0 0 159 35" fill="none" xmlns="http://www.w3.org/2000/svg">
<path fill-rule="evenodd" clip-rule="evenodd" d="M0.0009367 0H8.04667C8.32077 0.657729 8.57082 1.32589 8.83594 1.98739C11.8441 9.62631 14.8491 17.2664 17.8601 24.9044C18.7818 22.5273 19.6885 20.1439 20.6049 17.7645C22.5828 12.611 24.5614 7.45783 26.539 2.30437C26.8363 1.53712 27.1248 0.765805 27.4273 0H43.9076C44.2443 0.0301338 44.5842 0.0202815 44.9212 0.0498358C46.835 0.174717 48.7433 0.624981 50.4574 1.49915C51.3776 1.95782 52.2315 2.54312 53.0162 3.20636C53.9022 3.93305 54.6883 4.78953 55.291 5.76685C55.9467 6.82212 56.3712 8.01675 56.547 9.24558C56.7394 10.6193 56.68 12.0356 56.3228 13.3783C56.0481 14.4089 55.5857 15.3877 54.9725 16.2601C54.3241 17.1861 53.5174 17.9939 52.6259 18.6862C51.703 19.4036 50.6823 19.9935 49.6006 20.4357C48.4561 20.9071 47.2455 21.2032 46.0211 21.3727C47.5356 21.3741 49.0504 21.3733 50.5649 21.3733C53.0408 25.7624 55.5155 30.1526 57.9897 34.5429C55.2075 34.5435 52.4257 34.5438 49.6441 34.5423C47.2279 30.201 44.812 25.8589 42.3966 21.5167C40.1134 21.5167 37.8302 21.5164 35.547 21.517C35.5461 25.8589 35.5475 30.2013 35.5461 34.5432C33.0291 34.5429 30.5117 34.5438 27.995 34.5429C27.9935 24.3226 27.9979 14.1026 27.9924 3.88233C27.9561 3.96636 27.9231 4.05183 27.8921 4.13818C24.0796 14.2733 20.2651 24.4072 16.454 34.5429C15.692 34.5435 14.9305 34.5432 14.1682 34.5432C10.1244 24.2725 6.08188 14.0015 2.03816 3.7308C2.03613 14.0015 2.03787 24.2722 2.03729 34.5429C1.35841 34.5435 0.679527 34.5435 0.000647111 34.5429C0.000357363 23.0289 -0.000801789 11.5149 0.0009367 0ZM35.5467 1.71907C35.5464 7.74844 35.5461 13.7772 35.5467 19.806C37.4828 19.8063 39.4183 19.8063 41.3541 19.806C41.8041 19.793 42.2535 19.7345 42.6913 19.627C43.7752 19.3642 44.7711 18.771 45.5369 17.9629C46.2926 17.1745 46.8396 16.2045 47.2105 15.1816C47.6912 13.8595 47.8905 12.449 47.9192 11.0469C47.9395 9.54489 47.7746 8.02689 47.2965 6.59727C46.9355 5.51448 46.3862 4.48124 45.6062 3.64155C44.8676 2.83837 43.9074 2.23483 42.8524 1.94711C42.2326 1.77094 41.5859 1.71386 40.9435 1.71907C39.1445 1.71907 37.3454 1.71907 35.5467 1.71907ZM71.2558 9.02363C72.2604 8.71128 73.3136 8.57191 74.3637 8.56206C75.5099 8.5525 76.6706 8.67535 77.7578 9.0555C78.4929 9.31019 79.1813 9.70744 79.7483 10.2426C80.3389 10.7905 80.7946 11.4972 80.9859 12.2845C81.0592 12.587 81.0994 12.8981 81.096 13.2099C80.8616 13.2096 80.6283 13.2108 80.3953 13.209C80.3985 12.717 80.3052 12.2213 80.0975 11.7742C79.9352 11.4274 79.704 11.1156 79.4305 10.8493C78.7 10.1661 77.7708 9.69584 76.7825 9.53242C75.7918 9.36901 74.767 9.3861 73.7853 9.60399C72.7701 9.83203 71.8087 10.3281 71.0692 11.0649C70.3086 11.8116 69.7842 12.7709 69.4536 13.7781C69.0384 15.0492 68.9005 16.396 68.9089 17.7274C68.917 18.8478 69.0343 19.9755 69.3496 21.0537C69.6411 22.0588 70.12 23.013 70.7789 23.8274C71.2764 24.449 71.9121 24.9769 72.6637 25.2582C73.3032 25.5016 73.9983 25.5738 74.6786 25.5335C75.5432 25.4825 76.4171 25.2208 77.0995 24.6729C77.5926 24.2806 77.9647 23.7391 78.1463 23.1349C78.206 22.9843 78.1765 22.8203 78.1831 22.663C78.1892 22.1962 78.1715 21.7294 78.1753 21.2623C78.1733 20.387 78.188 19.5119 78.1837 18.6363C79.4383 18.6375 80.6926 18.6354 81.947 18.6375C81.9467 21.0879 81.9472 23.5386 81.9467 25.9893C81.7496 25.9898 81.5526 25.9895 81.3559 25.9895C80.7042 25.3854 80.0462 24.7877 79.3946 24.1833C78.8895 24.8433 78.164 25.3011 77.3994 25.6048C76.4924 25.964 75.5169 26.1263 74.5445 26.1538C73.464 26.179 72.3757 26.0565 71.3387 25.7459C69.5026 25.2032 67.8713 24.0355 66.716 22.5146C66.0317 21.61 65.544 20.5585 65.2943 19.4522C65.1413 18.7728 65.063 18.0757 65.0688 17.3794C65.0514 16.09 65.307 14.7902 65.8659 13.6251C66.3866 12.5319 67.164 11.5711 68.0793 10.783C69.0016 9.98501 70.0905 9.38205 71.2558 9.02363ZM110.987 8.58958C112.428 8.4931 113.901 8.63769 115.262 9.13837C116.3 9.51562 117.258 10.1038 118.074 10.8467C118.928 11.6195 119.65 12.5481 120.135 13.5947C120.685 14.7635 120.927 16.0619 120.923 17.3493C120.926 18.7311 120.64 20.1259 120.002 21.357C119.454 22.4242 118.664 23.3575 117.741 24.1201C116.845 24.8592 115.797 25.4118 114.68 25.732C113.897 25.9588 113.086 26.077 112.273 26.1081C110.839 26.1654 109.382 25.9733 108.05 25.4266C106.958 24.9821 105.966 24.3012 105.145 23.4563C104.285 22.5983 103.605 21.5555 103.194 20.4113C102.708 19.0591 102.592 17.5912 102.752 16.1685C102.903 14.8337 103.374 13.5336 104.141 12.4282C104.803 11.4737 105.649 10.6442 106.62 10.005C107.913 9.14909 109.444 8.69071 110.987 8.58958ZM111.303 9.28759C110.68 9.35481 110.072 9.56633 109.548 9.91171C109.022 10.253 108.58 10.7129 108.219 11.2234C107.515 12.228 107.105 13.4124 106.881 14.6114C106.628 16.0066 106.594 17.4365 106.715 18.8473C106.848 20.3125 107.203 21.7859 107.961 23.0593C108.473 23.9109 109.194 24.6721 110.115 25.0748C110.83 25.393 111.634 25.4784 112.406 25.3788C113.016 25.2988 113.607 25.0751 114.114 24.7277C114.565 24.4229 114.949 24.0282 115.271 23.5919C115.668 23.0454 115.993 22.4471 116.235 21.8163C116.752 20.4768 116.933 19.0315 116.958 17.6031C116.969 16.7518 116.925 15.8982 116.799 15.0556C116.61 13.7827 116.218 12.5209 115.511 11.4372C115.016 10.6543 114.33 9.96444 113.47 9.5953C112.793 9.29715 112.035 9.20993 111.303 9.28759ZM85.6073 8.76141C88.2362 8.76112 90.8651 8.76141 93.4946 8.76141C94.7309 8.76344 95.9861 9.02247 97.0672 9.6379C97.5586 9.91229 98.0054 10.2611 98.4174 10.6439C98.7964 11.0052 99.1244 11.4222 99.3704 11.8852C99.6564 12.4212 99.8259 13.0166 99.8812 13.6214C99.9528 14.3967 99.8653 15.1932 99.5776 15.9196C99.2351 16.8008 98.5997 17.5419 97.8541 18.111C97.3233 18.5158 96.7293 18.8374 96.1006 19.0602C95.6228 19.2245 95.1288 19.3578 94.6243 19.403C94.979 19.4308 95.3354 19.4102 95.6912 19.4169C96.0835 19.4169 96.4755 19.4169 96.8681 19.4169C98.1036 21.6071 99.3408 23.7962 100.572 25.9893C99.1832 25.9904 97.7947 25.9895 96.4068 25.9898C95.2009 23.826 93.9982 21.661 92.7931 19.4969C91.655 19.4966 90.5174 19.4963 89.3796 19.4969C89.3793 21.661 89.3793 23.8251 89.3796 25.9893C88.1224 25.991 86.8651 25.9887 85.6082 25.9901C85.6059 20.247 85.6076 14.5042 85.6073 8.76141ZM89.3796 9.62109C89.3787 12.6264 89.379 15.6316 89.3793 18.6366C90.2833 18.6378 91.1873 18.6363 92.091 18.6375C92.4179 18.6378 92.7473 18.6039 93.0614 18.5106C93.7716 18.306 94.3751 17.8102 94.7674 17.1905C95.1288 16.6295 95.3388 15.9828 95.4492 15.328C95.5616 14.6387 95.5741 13.9337 95.4941 13.2403C95.4168 12.5948 95.2507 11.9538 94.9491 11.3755C94.6895 10.8777 94.3224 10.4277 93.8524 10.1145C93.3564 9.77813 92.7523 9.61036 92.1545 9.6208C91.2293 9.62109 90.3045 9.62109 89.3796 9.62109ZM124.058 8.75388C125.315 8.7533 126.573 8.7533 127.83 8.75388C127.83 12.2448 127.83 15.7359 127.83 19.2268C127.814 19.9431 127.873 20.6648 128.06 21.3579C128.329 22.3831 128.909 23.3418 129.765 23.9793C130.703 24.686 131.898 24.9792 133.061 24.963C134.239 24.9725 135.452 24.6347 136.367 23.8697C136.675 23.6136 136.947 23.3158 137.174 22.986C137.169 19.4728 137.173 15.9596 137.172 12.4467C137.174 11.2179 137.166 9.98965 137.181 8.76141C138.435 8.76199 139.689 8.76111 140.944 8.76169C140.944 14.5042 140.943 20.2467 140.944 25.9893C140.746 25.9907 140.549 25.9893 140.352 25.9904C139.44 25.1606 138.54 24.3186 137.626 23.4925C136.976 24.4513 136.011 25.178 134.93 25.5859C133.638 26.0782 132.227 26.1634 130.86 26.0524C129.615 25.9446 128.379 25.5969 127.306 24.9453C126.336 24.3568 125.491 23.5447 124.92 22.5595C124.558 21.9337 124.313 21.2423 124.183 20.5318C124.067 19.9127 124.049 19.281 124.058 18.6528C124.058 15.3526 124.058 12.0535 124.058 8.75388ZM144.699 8.75388C147.048 8.7533 149.395 8.75387 151.743 8.75358C152.262 8.75532 152.783 8.7417 153.302 8.7869C154.443 8.87817 155.574 9.22036 156.532 9.85578C157.339 10.3976 158.079 11.0895 158.516 11.9707C158.81 12.5487 158.961 13.1917 159 13.8369V14.4011C158.961 15.0924 158.789 15.7806 158.457 16.3908C157.947 17.3382 157.118 18.0832 156.189 18.6097C155.102 19.2219 153.843 19.4856 152.602 19.4882C151.225 19.4873 149.849 19.4879 148.472 19.4882C148.472 21.6523 148.473 23.8164 148.472 25.9809C147.214 25.9814 145.957 25.9814 144.701 25.9809C144.699 20.2389 144.699 14.4964 144.699 8.75388ZM148.472 9.61327C148.472 12.6185 148.472 15.6235 148.472 18.6285C149.265 18.6291 150.058 18.6285 150.852 18.6288C151.139 18.6236 151.428 18.6447 151.713 18.6018C152.333 18.5216 152.924 18.2347 153.368 17.7949C153.712 17.4657 153.975 17.0581 154.168 16.6249C154.457 15.9709 154.594 15.2584 154.631 14.5474C154.66 13.9409 154.634 13.3296 154.514 12.7333C154.392 12.121 154.176 11.5198 153.827 10.9997C153.558 10.5967 153.205 10.2475 152.784 10.0059C152.335 9.74423 151.816 9.6179 151.299 9.61298C150.357 9.61327 149.414 9.6124 148.472 9.61327Z" fill="black"/>
</svg>
