<svg width="167" height="17" viewBox="0 0 167 17" fill="none" xmlns="http://www.w3.org/2000/svg">
<g clip-path="url(#clip0_32_155)">
<path d="M148.582 0.196917V3.536H155.445V17H159.371V3.536H166.298V0.196917H148.582ZM139.538 13.6552H134.507C132.258 13.6552 131.335 13.1736 131.335 10.6094V6.44442C131.335 3.80375 131.879 3.34192 134.507 3.34192H139.538C141.817 3.34192 142.69 4.09558 142.69 5.86075H146.619C146.619 1.139 144.183 0 140.297 0H133.773C128.942 0 127.407 1.38408 127.407 6.2985V11.067C127.407 15.5706 128.851 17 133.394 17H140.702C145.544 17 146.619 15.6683 146.639 11.1888H142.69C142.69 13.2217 141.884 13.6552 139.538 13.6552ZM106.754 17H123.528V13.8267H110.68V9.97333H123.124V7.0465H110.68V3.36458H123.528V0.198333H106.754V17ZM86.1145 3.536H92.9755V17H96.9035V3.536H103.835V0.196917H86.1145V3.536ZM80.247 6.34667C80.247 3.89867 79.4457 3.34192 77.1035 3.34192H72.0416C69.5801 3.34192 68.8868 3.9695 68.8868 6.36792V10.8488C68.8868 13.0503 69.5801 13.6552 71.9658 13.6552H77.1737C79.6758 13.6552 80.247 13.1042 80.247 10.8219V6.34667ZM84.175 5.98117V11.2582C84.175 15.4473 82.8292 17 78.2388 17H71.0227C66.6162 17 64.9686 15.3298 64.9686 11.2582V5.98117C64.9686 1.38408 66.5544 0 71.0227 0H78.2388C82.3001 0 84.175 1.258 84.175 5.98117ZM49.8418 13.6567H49.8264L44.3883 0.198333H37.6269V17H41.5563V3.6125L47.1558 17H52.5166L58.1216 3.59692V17H62.0482V0.196917H55.2826L49.8404 13.6552L49.8418 13.6567ZM16.9779 17H33.748V13.8267H20.9003V9.97333H33.3425V7.0465H20.9003V3.36458H33.7494V0.198333H16.9793V17H16.9779ZM0 0.196917H14.0757V3.536H3.91819V17H0V0.196917Z" fill="#007934"/>
</g>
<defs>
<clipPath id="clip0_32_155">
<rect width="167" height="17" fill="white"/>
</clipPath>
</defs>
</svg>
