<svg width="97" height="62" viewBox="0 0 97 62" fill="none" xmlns="http://www.w3.org/2000/svg">
<path d="M50.0997 12.1997C41.2997 12.1997 34.1997 19.1997 34.1997 27.8997C34.1997 36.5996 41.2997 43.5996 50.0997 43.5996C58.8997 43.5996 65.9997 36.5996 65.9997 27.8997C65.9997 19.1997 58.7997 12.1997 50.0997 12.1997ZM50.0997 35.2996C46.3997 35.2996 43.4997 31.9996 43.4997 27.8997C43.4997 23.7997 46.4997 20.4997 50.0997 20.4997C53.7997 20.4997 56.6997 23.7997 56.6997 27.8997C56.6997 31.9996 53.6997 35.2996 50.0997 35.2996Z" fill="#353535"/>
<path d="M9.29997 0H0V8.69999H9.29997V0Z" fill="#353535"/>
<path d="M9.29997 43.1996H0V17.9997L9.29997 8.69971V43.1996Z" fill="#353535"/>
<path d="M32.8996 12.6001H22.5996L12.5996 26.2001V28.3L23.7996 43.2H34.4996L22.5996 27.1001L32.8996 12.6001Z" fill="#353535"/>
<path d="M78.0002 43.1996H70.2002V12.1997L88.3002 26.1997V12.5997H96.6002V43.9996L78.0002 29.4997V43.1996Z" fill="#353535"/>
<path d="M6.39958 46.5H8.09959V58.3H6.5996V57.2C5.9996 58 5.09959 58.5 3.89959 58.5C2.79959 58.5 1.89958 58.1 1.19958 57.3C0.499584 56.5 0.0996094 55.6 0.0996094 54.4C0.0996094 53.3 0.399584 52.3 1.19958 51.5C1.89958 50.7 2.79959 50.3 3.89959 50.3C4.99959 50.3 5.89962 50.7 6.49962 51.4V46.5H6.39958ZM5.69957 56.3C6.19957 55.9 6.39958 55.2 6.39958 54.4C6.39958 53.6 6.19957 53 5.69957 52.5C5.19957 52.1 4.6996 51.8 4.0996 51.8C3.3996 51.8 2.89959 52 2.39959 52.5C1.89959 53 1.69958 53.6 1.69958 54.3C1.69958 55 1.89959 55.6 2.39959 56.1C2.89959 56.6 3.3996 56.8 4.0996 56.8C4.6996 56.9 5.29957 56.7 5.69957 56.3Z" fill="#353535"/>
<path d="M17.3998 54.9997H11.5998C11.6998 55.5997 11.9998 56.0997 12.3998 56.4997C12.8998 56.8997 13.3998 56.9997 14.0998 56.9997C14.8998 56.9997 15.6998 56.6997 16.2998 56.0997L17.0998 57.1997C16.1998 57.9997 15.1998 58.3997 13.9998 58.3997C12.7998 58.3997 11.7998 57.9997 10.9998 57.1997C10.1998 56.3997 9.7998 55.4997 9.7998 54.2997C9.7998 53.1997 10.1998 52.1997 10.9998 51.3997C11.7998 50.5997 12.6998 50.1997 13.7998 50.1997C14.7998 50.1997 15.6998 50.4997 16.2998 51.1997C16.9998 51.8997 17.2998 52.6997 17.2998 53.6997C17.5998 54.1997 17.4998 54.5997 17.3998 54.9997ZM11.6998 53.6997H15.8998C15.8998 53.0997 15.6998 52.6997 15.2998 52.2997C14.8998 51.9997 14.4998 51.7997 13.8998 51.7997C13.3998 51.7997 12.8998 51.9997 12.4998 52.2997C12.0998 52.5997 11.7998 53.0997 11.6998 53.6997Z" fill="#353535"/>
<path d="M24.5998 50.5996H26.2998L22.5998 58.3996H21.9998L18.2998 50.5996H20.0998L22.2998 55.6996L24.5998 50.5996Z" fill="#353535"/>
<path d="M34.3998 54.9997H28.5998C28.6998 55.5997 28.9998 56.0997 29.3998 56.4997C29.8998 56.8997 30.3998 56.9997 31.0998 56.9997C31.8998 56.9997 32.6998 56.6997 33.2998 56.0997L34.0998 57.1997C33.1998 57.9997 32.1998 58.3997 30.9998 58.3997C29.7998 58.3997 28.7998 57.9997 27.9998 57.1997C27.1998 56.3997 26.7998 55.4997 26.7998 54.2997C26.7998 53.1997 27.1998 52.1997 27.9998 51.3997C28.7998 50.5997 29.6998 50.1997 30.7998 50.1997C31.7998 50.1997 32.6998 50.4997 33.2998 51.1997C33.8998 51.8997 34.2998 52.6997 34.2998 53.6997C34.4998 54.1997 34.4998 54.5997 34.3998 54.9997ZM28.6998 53.6997H32.8998C32.8998 53.0997 32.6998 52.6997 32.2998 52.2997C31.8998 51.9997 31.4998 51.7997 30.8998 51.7997C30.3998 51.7997 29.8998 51.9997 29.4998 52.2997C29.0998 52.5997 28.7998 53.0997 28.6998 53.6997Z" fill="#353535"/>
<path d="M38.2996 46.5H36.5996V58.3H38.2996V46.5Z" fill="#353535"/>
<path d="M40.2002 54.4003C40.2002 53.3003 40.6002 52.3003 41.4002 51.5003C42.2002 50.7003 43.2002 50.3003 44.3002 50.3003C45.4002 50.3003 46.4002 50.7003 47.2002 51.5003C48.0002 52.3003 48.4002 53.3003 48.4002 54.3003C48.4002 55.4003 48.0002 56.4003 47.2002 57.2003C46.4002 58.0003 45.4002 58.4003 44.3002 58.4003C43.2002 58.4003 42.2002 58.0003 41.4002 57.2003C40.6002 56.4003 40.2002 55.5003 40.2002 54.4003ZM46.7002 54.4003C46.7002 53.7003 46.5002 53.1003 46.0002 52.6003C45.5002 52.1003 45.0002 51.9003 44.3002 51.9003C43.6002 51.9003 43.0002 52.1003 42.6002 52.6003C42.1002 53.1003 41.9002 53.7003 41.9002 54.4003C41.9002 55.1003 42.1002 55.7003 42.6002 56.2003C43.1002 56.7003 43.6002 56.9003 44.3002 56.9003C45.0002 56.9003 45.6002 56.7003 46.0002 56.2003C46.4002 55.7003 46.7002 55.1003 46.7002 54.4003Z" fill="#353535"/>
<path d="M58.2997 54.3994C58.2997 55.5994 57.8997 56.4994 57.1997 57.2994C56.4997 58.0994 55.5997 58.4994 54.4997 58.4994C53.3997 58.4994 52.5997 58.0994 51.8997 57.3994V61.1994H50.1997V50.5994H51.6997V51.6994C52.2997 50.8994 53.1997 50.3994 54.3997 50.3994C55.4997 50.3994 56.3997 50.7994 57.0997 51.5994C57.9997 52.2994 58.2997 53.2994 58.2997 54.3994ZM55.9997 56.1994C56.4997 55.6994 56.6997 55.0994 56.6997 54.3994C56.6997 53.6994 56.4997 53.0994 55.9997 52.5994C55.4997 52.0994 54.9997 51.8994 54.2997 51.8994C53.6997 51.8994 53.0997 52.0994 52.5997 52.5994C52.0997 52.9994 51.8997 53.6994 51.8997 54.4994C51.8997 55.2994 52.0997 55.8994 52.5997 56.3994C53.0997 56.7994 53.5997 57.0994 54.2997 57.0994C54.9997 56.8994 55.4997 56.6994 55.9997 56.1994Z" fill="#353535"/>
<path d="M71.8997 53.4003V58.2003H70.1997V53.6003C70.1997 53.1003 70.0997 52.6003 69.7997 52.3003C69.4997 52.0003 69.0997 51.8003 68.5997 51.8003C68.0997 51.8003 67.6997 52.0003 67.3997 52.3003C67.0997 52.6003 66.8997 53.0003 66.8997 53.5003V58.2003H65.1997V53.6003C65.1997 53.1003 65.0997 52.6003 64.7997 52.3003C64.4997 52.0003 64.0997 51.8003 63.5997 51.8003C63.0997 51.8003 62.6997 52.0003 62.3997 52.3003C62.0997 52.6003 61.8997 53.1003 61.8997 53.6003V58.2003H60.1997V50.5003H61.6997V51.2003C62.2997 50.6003 62.9997 50.3003 63.8997 50.3003C64.9997 50.3003 65.7997 50.7003 66.1997 51.5003C66.7997 50.7003 67.6997 50.3003 68.7997 50.3003C69.6997 50.3003 70.3997 50.6003 70.8997 51.1003C71.6997 51.8003 71.8997 52.5003 71.8997 53.4003Z" fill="#353535"/>
<path d="M81.2997 54.9997H75.4998C75.5998 55.5997 75.8997 56.0997 76.2997 56.4997C76.7997 56.8997 77.2997 56.9997 77.9997 56.9997C78.7997 56.9997 79.5997 56.6997 80.1997 56.0997L80.9997 57.1997C80.0997 57.9997 79.0997 58.3997 77.8997 58.3997C76.6997 58.3997 75.6997 57.9997 74.8997 57.1997C74.0997 56.3997 73.6997 55.4997 73.6997 54.2997C73.6997 53.1997 74.0997 52.1997 74.8997 51.3997C75.6997 50.5997 76.5997 50.1997 77.6997 50.1997C78.6997 50.1997 79.5997 50.4997 80.1997 51.1997C80.8997 51.8997 81.1997 52.6997 81.1997 53.6997C81.3997 54.1997 81.3997 54.5997 81.2997 54.9997ZM75.4998 53.6997H79.6997C79.6997 53.0997 79.4997 52.6997 79.0997 52.2997C78.6997 51.9997 78.2997 51.7997 77.6997 51.7997C77.1997 51.7997 76.6997 51.9997 76.2997 52.2997C75.8997 52.5997 75.6998 53.0997 75.4998 53.6997Z" fill="#353535"/>
<path d="M90.0997 53.3994V58.1994H88.3997V53.5994C88.3997 53.0994 88.1997 52.5994 87.8997 52.2994C87.5997 51.9994 87.1997 51.7994 86.6997 51.7994C86.1997 51.7994 85.7997 51.9994 85.3997 52.2994C85.0997 52.5994 84.8997 53.0994 84.8997 53.5994V58.1994H83.1997V50.4994H84.6997V51.2994C85.2997 50.6994 86.0997 50.3994 86.9997 50.3994C87.8997 50.3994 88.5997 50.6994 89.0997 51.1994C89.8997 51.7994 90.0997 52.4994 90.0997 53.3994Z" fill="#353535"/>
<path d="M97 56.9001V58.3001C96.5 58.4001 96 58.5001 95.6 58.5001C94.7 58.5001 94 58.3001 93.5 57.8001C93 57.4001 92.8 56.7001 92.8 55.8001V52.0001H91.5V50.6001H92.8V48.6001H94.5V50.6001H96.8V52.0001H94.5V55.6001C94.5 56.1001 94.6 56.4001 94.9 56.6001C95.1 56.8001 95.5 56.9001 96.1 56.9001C96.1 57.0001 96.5 56.9001 97 56.9001Z" fill="#353535"/>
</svg>
