<svg width="349" height="349" viewBox="0 0 349 349" fill="none" xmlns="http://www.w3.org/2000/svg">
<mask id="mask0_76_239" style="mask-type:luminance" maskUnits="userSpaceOnUse" x="0" y="0" width="349" height="349">
<path d="M129.848 201.006C125.728 193.647 123.353 185.179 123.353 176.16C123.353 175.452 123.428 174.766 123.46 174.067C123.477 173.602 123.498 173.14 123.53 172.68C125.33 146.148 147.428 125.096 174.41 125.096C201.389 125.096 223.49 146.148 225.293 172.68C225.323 173.14 225.341 173.602 225.363 174.067C225.39 174.766 225.469 175.452 225.469 176.16C225.469 185.179 223.095 193.645 218.971 201.006C210.229 216.625 193.544 227.217 174.41 227.217C155.276 227.217 138.589 216.625 129.848 201.006ZM0.19085 166.582C0.0804423 168.601 0.0469843 170.639 0.00683594 172.68H0.0369435H14.0588H44.7338C46.5907 102.728 104.026 46.3879 174.41 46.3879C234.435 46.3879 285.015 87.3771 299.76 142.827H264.183C250.647 106.365 215.584 80.3691 174.41 80.3691C122.677 80.3691 80.5495 121.392 78.7127 172.68C78.696 173.14 78.6876 173.605 78.6776 174.067C78.6642 174.766 78.6258 175.455 78.6258 176.16C78.6258 184.757 79.775 193.082 81.9012 201.006H16.2418H11.6666H1.9925C14.7647 284.802 87.1288 349 174.482 349C261.838 349 334.2 284.802 346.971 201.006H332.723C320.046 276.922 253.932 334.979 174.482 334.979C99.0077 334.979 35.6051 282.572 18.5771 212.25H85.6802C99.9295 247.26 134.281 271.947 174.41 271.947C218.712 271.947 255.975 241.86 266.922 201.008C269.045 193.085 270.194 184.759 270.194 176.161C270.194 175.457 270.159 174.768 270.142 174.068C270.132 173.607 270.124 173.142 270.108 172.681H304.086H331.186H334.906H348.813H348.928C347.948 77.1503 270.241 2.84105e-08 174.482 2.84105e-08C80.7687 -0.00167293 4.33283 73.8814 0.19085 166.582Z" fill="white"/>
</mask>
<g mask="url(#mask0_76_239)">
<path d="M-142.502 73.8012L275.14 -142.493L491.428 275.197L73.7875 491.49L-142.502 73.8012Z" fill="url(#paint0_linear_76_239)"/>
</g>
<defs>
<linearGradient id="paint0_linear_76_239" x1="-154.183" y1="345.339" x2="1128.72" y2="-318.974" gradientUnits="userSpaceOnUse">
<stop stop-color="#1EB7F3"/>
<stop offset="0.1255" stop-color="#1EB7F3"/>
<stop offset="0.4121" stop-color="#B67FF9"/>
<stop offset="1" stop-color="#B67FF9"/>
</linearGradient>
</defs>
</svg>
