<svg width="48" height="48" viewBox="0 0 48 48" fill="none" xmlns="http://www.w3.org/2000/svg">
<g clip-path="url(#clip0_97_280)">
<mask id="mask0_97_280" style="mask-type:luminance" maskUnits="userSpaceOnUse" x="0" y="0" width="48" height="48">
<path d="M48 0H0V48H48V0Z" fill="white"/>
</mask>
<g mask="url(#mask0_97_280)">
<path d="M8.792 27.2001C8.5872 27.2065 8.3856 27.2849 8.2416 27.4321L6.6608 29.0193C5.8832 29.7665 7.0336 30.9201 7.7808 30.1393L9.3616 28.5553C9.8768 28.0497 9.5008 27.2001 8.792 27.2001ZM7.2 16.0001C6.488 16.0001 6.128 16.8577 6.64 17.3537L8.224 18.9409C8.968 19.7201 10.1184 18.5665 9.3408 17.8209L7.7568 16.2321C7.6112 16.0801 7.416 16.0001 7.2 16.0001ZM19.992 16.0001C19.7872 16.0065 19.5856 16.0849 19.4416 16.2321L17.8608 17.8193C17.0832 18.5665 18.2336 19.7201 18.9808 18.9393L20.5616 17.3553C21.0768 16.8497 20.7024 16.0001 19.9936 16.0001H19.992ZM14.4 15.2001V16.8001C14.4 17.2433 14.0432 17.6001 13.6 17.6001C13.1568 17.6001 12.8 17.2433 12.8 16.8001V15.2001C12.8 14.7569 13.1568 14.4001 13.6 14.4001C14.0432 14.4001 14.4 14.7569 14.4 15.2001ZM5.6 22.4001H7.2C7.6432 22.4001 8 22.7569 8 23.2001C8 23.6433 7.6432 24.0001 7.2 24.0001H5.6C5.1568 24.0001 4.8 23.6433 4.8 23.2001C4.8 22.7569 5.1568 22.4001 5.6 22.4001ZM33.968 16.0801C33.3952 16.2017 32.8608 16.4641 32.416 16.8481C31.944 17.2577 31.5904 17.7889 31.3968 18.3809C31.2896 18.7089 31.3488 19.0497 31.3408 19.3889C30.9504 19.1761 30.0608 19.1361 29.5056 19.2849C28.8016 19.4497 28.1008 19.7761 27.5616 20.3249C26.7568 21.1409 26.544 21.8289 26.6016 22.7377C26.3456 22.6257 26.1056 22.4769 25.8176 22.4337C25.344 22.3617 24.8704 22.4017 24.4256 22.5425C23.9856 22.6801 23.5936 22.9041 23.2544 23.1665C22.7824 23.5345 22.3808 24.0097 22.1104 24.5745C21.9184 24.9745 21.9056 25.4225 21.8736 25.8673L18.2832 22.6081C17.8256 22.1921 17.3232 21.7361 16.6928 21.3761C16.0592 21.0193 15.3168 20.7745 14.52 20.8001C13.6944 20.8273 12.8944 21.1489 12.2864 21.7249C11.6784 22.3009 11.3136 23.0881 11.2512 23.9169C11.192 24.7393 11.4272 25.5265 11.8272 26.1889C12.2192 26.8449 12.7328 27.3377 13.1936 27.7777L26.0032 40.0001H23.2C22.816 40.0001 22.3888 40.0001 21.928 40.0849C21.464 40.1681 21 40.3329 20.5776 40.6161C20.1568 40.8977 19.8064 41.2785 19.5648 41.7361C19.3248 42.1889 19.2016 42.6929 19.2016 43.2001C19.2016 43.7073 19.3232 44.2113 19.5648 44.6657C19.8048 45.1217 20.1568 45.5025 20.5792 45.7857C21.0032 46.0673 21.4688 46.2337 21.9312 46.3137C22.392 46.3985 22.8208 46.4001 23.2032 46.4001H36.0032C37.1008 46.4001 37.0336 44.8001 36.0032 44.8001H23.2032C22.8304 44.8001 22.4992 44.7921 22.216 44.7409C21.9344 44.6897 21.6752 44.5937 21.4688 44.4561C21.264 44.3185 21.0912 44.1281 20.9776 43.9153C20.8656 43.7025 20.8016 43.4513 20.8016 43.2001C20.8016 42.9505 20.8656 42.6977 20.9776 42.4849C21.0896 42.2721 21.2624 42.0817 21.4672 41.9441C21.6752 41.8065 21.9312 41.7105 22.2144 41.6593C22.496 41.6081 22.8288 41.6001 23.2016 41.6001H28.0016C28.7216 41.6001 29.0736 40.7201 28.5552 40.2241L14.2992 26.6241C13.848 26.1921 13.4512 25.7889 13.1984 25.3665C12.9472 24.9473 12.8144 24.4673 12.8464 24.0337C12.8784 23.6081 13.0816 23.1745 13.3856 22.8865C13.6928 22.5953 14.1376 22.4161 14.5696 22.4017C14.9984 22.3857 15.4688 22.5297 15.9008 22.7729C16.336 23.0209 16.7584 23.3873 17.208 23.7969C19.56 25.9281 21.912 28.0593 24.264 30.1969C24.9888 30.8529 26.0592 29.7009 25.3776 29.0529L24.568 28.2369C24.232 27.8961 23.9312 27.5841 23.7296 27.2673C23.5296 26.9537 23.4 26.6017 23.3696 26.2657C23.3408 25.9297 23.4064 25.5729 23.5552 25.2625C23.7056 24.9489 23.9456 24.6609 24.24 24.4305C24.4528 24.2657 24.6784 24.1425 24.904 24.0721C25.1248 24.0033 25.3616 23.9825 25.576 24.0161C25.7936 24.0481 26.0208 24.1361 26.2288 24.2721C26.4368 24.4081 26.6528 24.6129 26.896 24.8529L29.04 26.9713V26.9745C29.7984 27.6945 30.88 26.6785 30.1632 25.9345L29.3696 25.0385C28.9776 24.5985 28.5904 24.2337 28.3744 23.8337C28.1616 23.4369 28.0672 22.9857 28.1184 22.5793C28.1712 22.1745 28.3792 21.7681 28.6816 21.4721C28.9888 21.1713 29.4128 20.9553 29.8752 20.8481C30.4896 20.6817 31.0432 20.9761 31.4368 21.3697L33.0368 22.9697L33.8368 23.7697C34.592 24.4929 35.6928 23.3921 34.9696 22.6369L34.1696 21.8369C33.8336 21.5041 33.5376 21.1969 33.3152 20.8769C33.0944 20.5617 32.936 20.2209 32.8672 19.8849C32.8032 19.5489 32.8192 19.1937 32.9216 18.8817C33.024 18.5681 33.2176 18.2737 33.4656 18.0609C33.6992 17.8593 33.9936 17.7137 34.3008 17.6481C34.6048 17.5841 34.9408 17.5937 35.2608 17.6801C35.5776 17.7633 35.9008 17.9265 36.1968 18.1441C36.4976 18.3617 36.7888 18.6481 37.1024 18.9633L46.6192 28.5281C47.3712 29.3121 48.536 28.1505 47.7504 27.3969L38.2384 17.8321C37.9184 17.5121 37.5664 17.1649 37.1408 16.8529C36.712 16.5425 36.224 16.2817 35.6768 16.1329C35.128 15.9889 34.5408 15.9601 33.9712 16.0817L33.968 16.0801ZM14.4 40.0001C14.4 40.8833 13.6832 41.6001 12.8 41.6001C11.9168 41.6001 11.2 40.8833 11.2 40.0001C11.2 39.1169 11.9168 38.4001 12.8 38.4001C13.6832 38.4001 14.4 39.1169 14.4 40.0001ZM10.4 4.8001H15.2C15.6432 4.8001 16 5.1569 16 5.6001C16 6.0433 15.6432 6.4001 15.2 6.4001H10.4C9.9568 6.4001 9.6 6.0433 9.6 5.6001C9.6 5.1569 9.9568 4.8001 10.4 4.8001ZM2.4 1.6001C1.0848 1.6001 0 2.6849 0 4.0001V42.4001C0 43.7153 1.0848 44.8001 2.4 44.8001H16.8C17.9088 44.8001 17.8192 43.2001 16.8 43.2001H2.4C1.9424 43.2001 1.6 42.8577 1.6 42.4001V4.0001C1.6 3.5425 1.9424 3.2001 2.4 3.2001H23.2C23.6576 3.2001 24 3.5425 24 4.0001V18.4001C23.984 19.4817 25.616 19.4817 25.6 18.4001V4.0001C25.6 2.6849 24.5152 1.6001 23.2 1.6001H2.4Z" fill="#1496FF"/>
</g>
</g>
<defs>
<clipPath id="clip0_97_280">
<rect width="48" height="48" fill="white"/>
</clipPath>
</defs>
</svg>
