<svg width="92" height="112" viewBox="0 0 92 112" fill="none" xmlns="http://www.w3.org/2000/svg">
<g filter="url(#filter0_d_32_218)">
<path d="M46 6C26.116 6 10 22.12 10 42C10 71.3239 33.3984 74.2163 43.8919 96.6613C44.6942 98.3773 47.4368 98.4284 48.2884 96.7363C59.4692 74.5208 82 70.3924 82 42C82 22.12 65.884 6 46 6Z" fill="white"/>
</g>
<mask id="mask0_32_218" style="mask-type:luminance" maskUnits="userSpaceOnUse" x="26" y="23" width="40" height="40">
<path d="M40.7737 45.871C40.3049 45.0336 40.0346 44.07 40.0346 43.0438C40.0346 42.9633 40.0431 42.8853 40.0468 42.8057C40.0487 42.7528 40.0511 42.7002 40.0547 42.6479C40.2596 39.6291 42.774 37.2337 45.844 37.2337C48.9138 37.2337 51.4284 39.6291 51.6335 42.6479C51.637 42.7002 51.6391 42.7528 51.6415 42.8057C51.6446 42.8853 51.6535 42.9633 51.6535 43.0438C51.6535 44.07 51.3834 45.0334 50.9142 45.871C49.9195 47.6481 48.0211 48.8532 45.844 48.8532C43.6668 48.8532 41.7682 47.6481 40.7737 45.871ZM26.0209 41.9541C26.0084 42.1838 26.0046 42.4157 26 42.6479H26.0034H27.5989H31.0891C31.3004 34.6886 37.8356 28.2781 45.844 28.2781C52.6738 28.2781 58.4289 32.942 60.1066 39.2512H56.0586C54.5183 35.1025 50.5288 32.1446 45.844 32.1446C39.9577 32.1446 35.1643 36.8122 34.9553 42.6479C34.9534 42.7002 34.9525 42.7532 34.9513 42.8057C34.9498 42.8853 34.9454 42.9637 34.9454 43.0438C34.9454 44.0221 35.0762 44.9693 35.3181 45.871H27.8473H27.3267H26.2259C27.6792 55.4054 35.9129 62.71 45.8521 62.71C55.7917 62.71 64.0253 55.4054 65.4783 45.871H63.8572C62.4148 54.5088 54.8922 61.1146 45.8521 61.1146C37.2645 61.1146 30.0504 55.1516 28.113 47.1503H35.7481C37.3694 51.1338 41.2781 53.9427 45.844 53.9427C50.8847 53.9427 55.1246 50.5194 56.3702 45.8711C56.6117 44.9696 56.7425 44.0222 56.7425 43.044C56.7425 42.9639 56.7385 42.8855 56.7366 42.8059C56.7354 42.7534 56.7345 42.7004 56.7328 42.6481H60.5988H63.6823H64.1056H65.6879H65.701C65.5895 31.7783 56.7478 23 45.8521 23C35.1893 22.9998 26.4922 31.4064 26.0209 41.9541Z" fill="white"/>
</mask>
<g mask="url(#mask0_32_218)">
<path d="M9.78516 31.397L57.3054 6.78662L81.9151 54.3123L34.3951 78.9226L9.78516 31.397Z" fill="url(#paint0_linear_32_218)"/>
</g>
<defs>
<filter id="filter0_d_32_218" x="0" y="0" width="92" height="111.977" filterUnits="userSpaceOnUse" color-interpolation-filters="sRGB">
<feFlood flood-opacity="0" result="BackgroundImageFix"/>
<feColorMatrix in="SourceAlpha" type="matrix" values="0 0 0 0 0 0 0 0 0 0 0 0 0 0 0 0 0 0 127 0" result="hardAlpha"/>
<feOffset dy="4"/>
<feGaussianBlur stdDeviation="5"/>
<feComposite in2="hardAlpha" operator="out"/>
<feColorMatrix type="matrix" values="0 0 0 0 0 0 0 0 0 0 0 0 0 0 0 0 0 0 0.25 0"/>
<feBlend mode="normal" in2="BackgroundImageFix" result="effect1_dropShadow_32_218"/>
<feBlend mode="normal" in="SourceGraphic" in2="effect1_dropShadow_32_218" result="shape"/>
</filter>
<linearGradient id="paint0_linear_32_218" x1="8.45609" y1="62.2933" x2="154.427" y2="-13.2938" gradientUnits="userSpaceOnUse">
<stop stop-color="#1EB7F3"/>
<stop offset="0.1255" stop-color="#1EB7F3"/>
<stop offset="0.4121" stop-color="#B67FF9"/>
<stop offset="1" stop-color="#B67FF9"/>
</linearGradient>
</defs>
</svg>
