<svg width="48" height="48" viewBox="0 0 48 48" fill="none" xmlns="http://www.w3.org/2000/svg">
<path d="M24.768 19.2001C24.56 19.2065 24.36 19.2929 24.2128 19.4433L19.992 23.6513L17.392 21.0593C16.664 20.3009 15.488 21.4721 16.248 22.1985L19.4208 25.3633C19.736 25.6785 20.248 25.6785 20.5648 25.3633L25.3568 20.5841C25.8848 20.0721 25.496 19.2001 24.7696 19.2001H24.768ZM0.8 25.6001H5.6C6.0432 25.6001 6.4 25.9569 6.4 26.4001C6.4 26.8433 6.0432 27.2001 5.6 27.2001H0.8C0.3568 27.2001 0 26.8433 0 26.4001C0 25.9569 0.3568 25.6001 0.8 25.6001ZM0.8 19.2001H5.6C6.0432 19.2001 6.4 19.5569 6.4 20.0001C6.4 20.4433 6.0432 20.8001 5.6 20.8001H0.8C0.3568 20.8001 0 20.4433 0 20.0001C0 19.5569 0.3568 19.2001 0.8 19.2001ZM0.8 12.8001H5.6C6.0432 12.8001 6.4 13.1569 6.4 13.6001C6.4 14.0433 6.0432 14.4001 5.6 14.4001H0.8C0.3568 14.4001 0 14.0433 0 13.6001C0 13.1569 0.3568 12.8001 0.8 12.8001ZM39.2 30.4001C37 30.4001 35.2 32.2001 35.2 34.4001C35.2 36.6001 37 38.4001 39.2 38.4001C41.4 38.4001 43.2 36.6001 43.2 34.4001C43.2 32.2001 41.4 30.4001 39.2 30.4001ZM39.2 32.0001C40.5344 32.0001 41.6 33.0657 41.6 34.4001C41.6 35.7345 40.5344 36.8001 39.2 36.8001C37.8656 36.8001 36.8 35.7345 36.8 34.4001C36.8 33.0657 37.8656 32.0001 39.2 32.0001ZM18.4 30.4001C16.2 30.4001 14.4 32.2001 14.4 34.4001C14.4 36.6001 16.2 38.4001 18.4 38.4001C20.6 38.4001 22.4 36.6001 22.4 34.4001C22.4 32.2001 20.6 30.4001 18.4 30.4001ZM18.4 32.0001C19.7344 32.0001 20.8 33.0657 20.8 34.4001C20.8 35.7345 19.7344 36.8001 18.4 36.8001C17.0656 36.8001 16 35.7345 16 34.4001C16 33.0657 17.0656 32.0001 18.4 32.0001ZM10.4 9.6001C9.0848 9.6001 8 10.6849 8 12.0001V29.6001C8 30.9153 9.0848 32.0001 10.4 32.0001H13.6C14.6816 32.0161 14.6816 30.3841 13.6 30.4001H10.4C9.9424 30.4001 9.6 30.0577 9.6 29.6001V12.0001C9.6 11.5425 9.9424 11.2001 10.4 11.2001H31.2C31.6576 11.2001 32 11.5425 32 12.0001V30.4001H23.2C22.144 30.4001 22.1632 32.0161 23.2 32.0001H34.4C35.456 32.0001 35.4464 30.4001 34.4 30.4001H33.6V16.0001H40.3632L46.4 25.4337V29.6001C46.4 30.0577 46.0576 30.4001 45.6 30.4001H44C42.9536 30.4001 42.9536 32.0001 44 32.0001H45.6C46.9152 32.0001 48 30.9153 48 29.6001V25.2001C48 25.0481 47.9568 24.8961 47.8752 24.7681L41.4752 14.7681C41.328 14.5393 41.0752 14.4001 40.8 14.4001H33.6V12.0001C33.6 10.6849 32.5152 9.6001 31.2 9.6001H10.4Z" fill="#1496FF"/>
</svg>
