<svg width="20" height="21" viewBox="0 0 20 21" fill="none" xmlns="http://www.w3.org/2000/svg">
<path fill-rule="evenodd" clip-rule="evenodd" d="M0.90955 16.0155C0.439048 16.344 0.120885 16.5184 0.0276243 16.7473C-0.0710345 16.9739 0.0823598 17.9702 0.686306 19.067C1.29238 20.1646 3.48094 20.9143 4.47935 20.9063C5.37481 20.8999 6.48899 20.783 7.64638 20.2173C8.35052 19.8752 9.24935 19.4242 10.3818 18.7227C15.1421 15.7841 17.6951 10.246 17.898 9.87485C18.1025 9.50138 19.5587 6.85497 19.1817 4.40583C18.8044 1.9557 17.3075 0.9538 16.7635 0.528636C16.2233 0.101874 15.6521 0.0592943 15.3151 0.111185C14.9741 0.163684 14.637 0.221645 14.3436 0.280982C14.0346 0.343741 13.5954 0.277821 13.3327 1.31184C13.0641 2.37308 12.4242 4.97881 12.3368 5.24621C12.2467 5.51506 12.2056 5.81986 12.4279 6.12661C12.648 6.43267 12.7646 6.62515 13.0634 6.87662C13.3626 7.13105 13.6972 7.44479 13.9599 7.633C14.2503 7.84326 14.5591 8.06788 14.3383 8.61182C14.1191 9.15955 13.3487 10.9446 12.0458 12.4969C10.3675 14.4895 8.81058 15.2665 8.34106 15.5948C7.87155 15.923 7.56919 15.9241 7.22384 15.6393C6.87422 15.3532 5.7298 14.38 5.31327 13.9352C4.89757 13.4892 4.57118 13.6235 4.13123 13.8612C3.6906 14.101 1.37937 15.6892 0.90955 16.0155Z" fill="#999999"/>
</svg>
