<svg width="84" height="24" viewBox="0 0 84 24" fill="none" xmlns="http://www.w3.org/2000/svg">
<path d="M59.1432 8.68896H56.0352V20.0038H59.1432V8.68896Z" fill="black"/>
<path d="M51.6329 8.68896L48.5914 16.9212L45.5498 8.68896H42.4438L46.6268 20.0038H47.4529H49.7283H50.556L54.7377 8.68896H51.6329Z" fill="black"/>
<path d="M70.1109 11.1817V8.68853H66.3907V5.56738H63.2859V8.68853H60.8291V11.1817H63.286V16.049C63.286 18.5607 64.5509 20.2359 67.7723 20.2359C69.0193 20.2359 70.1109 19.7843 70.1109 19.7843L69.7352 17.3395C69.7352 17.3395 69.123 17.5198 68.3715 17.5198C67.45 17.5198 66.3908 17.1269 66.3908 15.8581V11.1817H70.1109Z" fill="black"/>
<path d="M40.1321 20.003H43.4381L37.3139 3.42969H36.8184H35.6838H34.917L28.7925 20.003H32.0997L33.2674 16.8408H38.9603L40.1321 20.003ZM34.1897 14.3436L36.1171 9.13421L38.0419 14.3436H34.1897Z" fill="black"/>
<path d="M77.2339 8.39844C73.8684 8.39844 71.1377 11.0551 71.1377 14.3267C71.1377 17.6 73.8684 20.2551 77.2339 20.2551C80.5978 20.2551 83.3317 17.6 83.3317 14.3267C83.3317 11.055 80.5978 8.39844 77.2339 8.39844ZM77.2339 17.4157C75.5041 17.4157 74.1 16.0511 74.1 14.3687C74.1 12.6852 75.5041 11.3199 77.2339 11.3199C78.9668 11.3199 80.3679 12.6852 80.3679 14.3687C80.3679 16.0511 78.9668 17.4157 77.2339 17.4157Z" fill="black"/>
<path d="M59.5931 5.37479C59.5931 6.47446 58.6959 7.36481 57.5913 7.36481C56.4834 7.36481 55.5879 6.47446 55.5879 5.37479C55.5879 4.27672 56.4834 3.38477 57.5913 3.38477C58.6959 3.38477 59.5931 4.27672 59.5931 5.37479Z" fill="black"/>
<path d="M10.4658 5.20139C10.4658 8.07456 8.12385 10.4043 5.2337 10.4043C2.34355 10.4043 0 8.07456 0 5.20139C0 2.329 2.34355 0 5.2337 0C8.12385 0 10.4658 2.32895 10.4658 5.20139Z" fill="#00AAFF"/>
<path d="M23.5604 17.0923C23.5604 20.5878 20.7091 23.4208 17.193 23.4208C13.6784 23.4208 10.8296 20.5878 10.8296 17.0923C10.8296 13.5969 13.6784 10.7632 17.193 10.7632C20.709 10.7631 23.5604 13.5969 23.5604 17.0923Z" fill="#97CF26"/>
<path d="M21.2918 5.20117C21.2918 7.45118 19.4568 9.27629 17.1926 9.27629C14.9316 9.27629 13.0967 7.45118 13.0967 5.20117C13.0967 2.95187 14.9316 1.12842 17.1926 1.12842C19.4568 1.12836 21.2918 2.95182 21.2918 5.20117Z" fill="#FF6163"/>
<path d="M8.19839 17.0927C8.19839 18.7205 6.87031 20.0377 5.23377 20.0377C3.59712 20.0377 2.26904 18.7205 2.26904 17.0927C2.26904 15.4649 3.59712 14.1479 5.23377 14.1479C6.87031 14.1479 8.19839 15.4649 8.19839 17.0927Z" fill="#A169F7"/>
</svg>
