<svg width="48" height="48" viewBox="0 0 48 48" fill="none" xmlns="http://www.w3.org/2000/svg">
<mask id="mask0_97_273" style="mask-type:luminance" maskUnits="userSpaceOnUse" x="0" y="0" width="48" height="48">
<path d="M48 0H0V48H48V0Z" fill="white"/>
</mask>
<g mask="url(#mask0_97_273)">
<path d="M23.9998 3.20013C23.8942 3.20653 23.7486 3.23213 23.6526 3.28013L0.447804 14.4705C-0.516996 14.9345 0.244604 16.3425 1.1422 15.9137L23.9998 4.88813L46.8574 15.9153C47.7902 16.3633 48.499 14.9265 47.5518 14.4721L24.347 3.28013C24.2254 3.22093 24.1342 3.19373 23.9998 3.20013ZM3.9998 17.6001C3.5582 17.6065 3.1934 17.9585 3.1998 18.4001V42.4001C3.1998 43.7153 4.2846 44.8001 5.5998 44.8001H16.7998C17.2414 44.8001 17.5998 44.4417 17.5998 44.0001V32.0049C17.5998 28.4481 20.4398 25.6081 23.9998 25.6081C27.5598 25.6081 30.3998 28.4481 30.3998 32.0049V44.0001C30.3998 44.4417 30.7582 44.8001 31.1998 44.8001H42.3998C43.715 44.8001 44.7998 43.7153 44.7998 42.4001V18.4113C44.7998 17.3681 43.1998 17.3297 43.1998 18.4113V42.4001C43.1998 42.8577 42.8574 43.2001 42.3998 43.2001H31.9998V32.0049C31.9998 27.5889 28.4158 24.0097 23.9998 24.0097C19.5838 24.0097 15.9998 27.5889 15.9998 32.0049V43.2001H5.5998C5.1422 43.2001 4.7998 42.8577 4.7998 42.4001V18.4001C4.8062 17.9489 4.451 17.5921 3.9998 17.6001Z" fill="#1496FF"/>
</g>
</svg>
