<svg width="48" height="48" viewBox="0 0 48 48" fill="none" xmlns="http://www.w3.org/2000/svg">
<g clip-path="url(#clip0_97_288)">
<mask id="mask0_97_288" style="mask-type:luminance" maskUnits="userSpaceOnUse" x="0" y="0" width="48" height="48">
<path d="M48 0H0V48H48V0Z" fill="white"/>
</mask>
<g mask="url(#mask0_97_288)">
<path d="M32.8002 16C32.5922 16 32.3746 16.096 32.229 16.2432L23.4322 25.04C23.037 25.4352 22.6898 25.5744 22.3922 25.576C22.0978 25.576 21.7746 25.448 21.365 25.04L17.3762 21.056C16.6498 20.296 15.4962 21.4672 16.2466 22.1888L20.2354 26.1728C20.8626 26.8 21.6002 27.1808 22.3954 27.176C23.1874 27.1712 23.9538 26.7824 24.5618 26.1744L33.3618 17.3744C33.8578 16.8864 33.5346 15.9984 32.8018 15.9984L32.8002 16ZM23.5522 0.08C23.341 0.1728 23.0242 0.3728 22.653 0.6C22.2802 0.8272 21.5538 1.288 20.845 1.6752C19.4242 2.4432 17.645 3.2032 16.0002 3.2032C14.2402 3.2032 12.9234 2.8352 11.6994 2.44C10.477 2.0448 9.33617 1.6 8.00017 1.6C6.76178 1.6 5.55857 1.7952 4.62897 2.5648C3.69617 3.336 3.20017 4.6656 3.20017 6.4V19.2C3.20017 21.088 2.89617 27.6272 6.50257 33.9968C8.62577 37.744 12.2946 41.1888 15.7474 43.744C17.4754 45.0208 19.1458 46.072 20.5634 46.8128C21.9794 47.5536 23.0434 48 24.0002 48C24.9602 48 26.021 47.552 27.437 46.8128C28.8546 46.072 30.525 45.0208 32.253 43.744C35.7058 41.1888 39.373 37.744 41.4978 33.9968C45.1042 27.6288 44.8002 21.088 44.8002 19.2V6.4C44.8002 4.6656 44.3042 3.336 43.3714 2.5648C42.4434 1.7968 41.2386 1.6 40.0002 1.6C38.6658 1.6 37.5234 2.0448 36.2994 2.4368C35.0786 2.832 33.7602 3.2 32.0002 3.2C30.3522 3.2 28.5634 2.4416 27.1442 1.672C26.4338 1.288 25.7202 0.8528 25.3362 0.5968C24.9474 0.3408 24.6274 0.1808 24.437 0.0768C24.213 -0.0256 23.7842 -0.0256 23.5506 0.0768L23.5522 0.08ZM24.0002 1.744C24.1474 1.744 24.277 1.824 24.485 1.9552C24.9618 2.2544 25.613 2.6656 26.3778 3.08C27.9074 3.9088 29.8978 4.8 32.0002 4.8C33.9874 4.8 35.5202 4.368 36.7874 3.9632C38.0514 3.5552 39.037 3.2 40.0002 3.2C41.0594 3.2 41.8562 3.392 42.3522 3.8C42.8482 4.2096 43.2002 4.952 43.2002 6.4V19.2C43.2002 21.2432 43.4674 27.272 40.1026 33.208C38.1666 36.6288 34.6306 39.992 31.2994 42.4592C29.6354 43.6912 28.0194 44.704 26.6978 45.3968C25.373 46.0896 24.2418 46.4 24.0002 46.4C23.7602 46.4 22.6274 46.0896 21.3026 45.3968C19.9794 44.704 18.3666 43.6928 16.6994 42.4592C13.3682 39.9952 9.83537 36.6288 7.89937 33.208C4.53137 27.272 4.80017 21.2432 4.80017 19.2V6.4C4.80017 4.952 5.15217 4.208 5.64818 3.8C6.14418 3.392 6.93937 3.2 8.00017 3.2C8.96338 3.2 9.94738 3.5552 11.213 3.9632C12.477 4.368 14.013 4.8 16.0002 4.8C18.101 4.8 20.0802 3.9072 21.6098 3.0768C22.3746 2.6608 23.0258 2.2512 23.5026 1.952C23.7106 1.824 23.8514 1.7392 23.9986 1.7392L24.0002 1.744Z" fill="#1496FF"/>
</g>
</g>
<defs>
<clipPath id="clip0_97_288">
<rect width="48" height="48" fill="white"/>
</clipPath>
</defs>
</svg>
