<svg width="49" height="48" viewBox="0 0 49 48" fill="none" xmlns="http://www.w3.org/2000/svg">
<mask id="mask0_97_274" style="mask-type:luminance" maskUnits="userSpaceOnUse" x="0" y="0" width="49" height="48">
<path d="M48.96 0H0V48H48.96V0Z" fill="white"/>
</mask>
<g mask="url(#mask0_97_274)">
<path d="M33.4562 22.4001C33.9083 22.4001 34.2722 22.7569 34.2722 23.2001V37.6001C34.2722 38.0433 33.9083 38.4001 33.4562 38.4001C33.0041 38.4001 32.6402 38.0433 32.6402 37.6001V23.2001C32.6402 22.7569 33.0041 22.4001 33.4562 22.4001ZM23.6642 22.4001C24.1163 22.4001 24.4802 22.7569 24.4802 23.2001V37.6001C24.4802 38.0433 24.1163 38.4001 23.6642 38.4001C23.2121 38.4001 22.8482 38.0433 22.8482 37.6001V23.2001C22.8482 22.7569 23.2121 22.4001 23.6642 22.4001ZM13.8722 22.4001C14.3243 22.4001 14.6882 22.7569 14.6882 23.2001V37.6001C14.6882 38.0433 14.3243 38.4001 13.8722 38.4001C13.4201 38.4001 13.0562 38.0433 13.0562 37.6001V23.2001C13.0562 22.7569 13.4201 22.4001 13.8722 22.4001ZM30.2346 1.6001C30.4468 1.6001 30.6475 1.6929 30.7944 1.8401L40.5701 11.4401C41.2914 12.1521 40.1458 13.2881 39.4163 12.5729L29.6406 2.9729C29.1151 2.4641 29.4039 1.6001 30.2346 1.6001ZM17.0938 1.6001C16.8816 1.6001 16.6809 1.6929 16.534 1.8401L6.7583 11.4401C6.03696 12.1521 7.18262 13.2881 7.91212 12.5729L17.6878 2.9729C18.2166 2.4641 17.9261 1.6001 17.0954 1.6001H17.0938ZM2.44819 14.4001C1.77254 14.4001 1.14748 14.6561 0.675838 15.0913C0.202558 15.5265 -0.117314 16.2113 0.0132451 16.9377L4.90924 44.1377C5.01043 44.6977 5.24054 45.2417 5.64854 45.6737C6.05654 46.1025 6.67017 46.4001 7.34582 46.4001H39.9858C40.6615 46.4001 41.2751 46.1025 41.6831 45.6721C42.0911 45.2401 42.3196 44.6993 42.4208 44.1361L47.3168 16.9361C47.4473 16.2113 47.1258 15.5281 46.6542 15.0913C46.1793 14.6561 45.5558 14.4001 44.8802 14.4001H2.44819ZM2.44819 16.0001H44.8802C45.6962 16.0001 45.8006 16.3281 45.7093 16.6625L40.8133 43.8625C40.6174 44.5729 40.4379 44.8001 39.9842 44.8001H7.34419C6.74851 44.8001 6.67507 44.4481 6.51513 43.8625L1.61913 16.6625C1.51795 16.1345 2.04019 16.0001 2.44819 16.0001Z" fill="#1496FF"/>
</g>
</svg>
