<svg width="15" height="16" viewBox="0 0 15 16" fill="none" xmlns="http://www.w3.org/2000/svg">
<path d="M12 5C13.1046 5 14 4.10457 14 3C14 1.89543 13.1046 1 12 1C10.8954 1 10 1.89543 10 3C10 4.10457 10.8954 5 12 5Z" fill="#999999" stroke="#999999" stroke-miterlimit="10"/>
<path d="M12 15C13.1046 15 14 14.1046 14 13C14 11.8954 13.1046 11 12 11C10.8954 11 10 11.8954 10 13C10 14.1046 10.8954 15 12 15Z" fill="#999999" stroke="#999999" stroke-miterlimit="10"/>
<path d="M3 10C4.10457 10 5 9.10457 5 8C5 6.89543 4.10457 6 3 6C1.89543 6 1 6.89543 1 8C1 9.10457 1.89543 10 3 10Z" fill="#999999" stroke="#999999" stroke-miterlimit="10"/>
<path d="M3 8L12 3" stroke="#999999" stroke-width="2" stroke-miterlimit="10"/>
<path d="M3 8L12 13" stroke="#999999" stroke-width="2" stroke-miterlimit="10"/>
</svg>
