<svg width="231" height="41" viewBox="0 0 231 41" fill="none" xmlns="http://www.w3.org/2000/svg">
<mask id="mask0_32_110" style="mask-type:luminance" maskUnits="userSpaceOnUse" x="0" y="0" width="40" height="41">
<path d="M14.7737 23.3159C14.3049 22.4785 14.0346 21.5149 14.0346 20.4887C14.0346 20.4082 14.0431 20.3302 14.0468 20.2506C14.0487 20.1977 14.0511 20.1452 14.0547 20.0928C14.2596 17.074 16.774 14.6786 19.844 14.6786C22.9138 14.6786 25.4284 17.074 25.6335 20.0928C25.637 20.1452 25.6391 20.1977 25.6415 20.2506C25.6446 20.3302 25.6535 20.4082 25.6535 20.4887C25.6535 21.5149 25.3834 22.4783 24.9142 23.3159C23.9195 25.093 22.0211 26.2981 19.844 26.2981C17.6668 26.2981 15.7682 25.093 14.7737 23.3159ZM0.0209376 19.399C0.0083751 19.6287 0.00456817 19.8606 0 20.0928H0.0034257H1.59886H5.08914C5.30041 12.1336 11.8356 5.72303 19.844 5.72303C26.6738 5.72303 32.4289 10.3869 34.1066 16.6961H30.0586C28.5183 12.5474 24.5288 9.58949 19.844 9.58949C13.9577 9.58949 9.16433 14.2571 8.95533 20.0928C8.95343 20.1452 8.95248 20.1981 8.95134 20.2506C8.94981 20.3302 8.94544 20.4086 8.94544 20.4887C8.94544 21.467 9.0762 22.4142 9.31812 23.3159H1.84726H1.32667H0.225934C1.67918 32.8503 9.91294 40.1549 19.8521 40.1549C29.7917 40.1549 38.0253 32.8503 39.4783 23.3159H37.8572C36.4148 31.9537 28.8922 38.5596 19.8521 38.5596C11.2645 38.5596 4.05045 32.5966 2.11297 24.5952H9.7481C11.3694 28.5788 15.2781 31.3876 19.844 31.3876C24.8847 31.3876 29.1246 27.9643 30.3702 23.3161C30.6117 22.4146 30.7425 21.4672 30.7425 20.4889C30.7425 20.4088 30.7385 20.3304 30.7366 20.2508C30.7354 20.1983 30.7345 20.1453 30.7328 20.093H34.5988H37.6823H38.1056H39.6879H39.701C39.5895 9.22325 30.7478 0.444916 19.8521 0.444916C9.18926 0.444725 0.492221 8.8513 0.0209376 19.399Z" fill="white"/>
</mask>
<g mask="url(#mask0_32_110)">
<path d="M-16.2148 8.84216L31.3054 -15.7682L55.9151 31.7575L8.39505 56.3677L-16.2148 8.84216Z" fill="url(#paint0_linear_32_110)"/>
</g>
<path d="M67.2062 29.9908H64.0988V16.9569H57.3252V14.3413H73.9796V16.9569H67.2062V29.9908Z" fill="black"/>
<path d="M88.4432 25.2514H75.8797C76.0883 26.1455 76.6175 26.8608 77.467 27.3974C78.3165 27.934 79.4488 28.2024 80.8649 28.2024C83.0702 28.2024 84.6206 27.5914 85.5148 26.3689H88.2197C87.9812 26.995 87.5748 27.6024 87.0013 28.191C86.4275 28.78 85.6227 29.2718 84.5871 29.6666C83.551 30.0612 82.2879 30.259 80.7979 30.259C79.1882 30.259 77.8096 29.998 76.662 29.4765C75.5145 28.9549 74.6465 28.247 74.0578 27.3527C73.4689 26.4586 73.1748 25.4526 73.1748 24.3346C73.1748 23.2169 73.4727 22.2074 74.069 21.3055C74.665 20.4038 75.5367 19.6923 76.6845 19.1704C77.8321 18.649 79.2179 18.388 80.8427 18.388C82.4669 18.388 83.8529 18.649 85.0007 19.1704C86.148 19.6923 87.016 20.4077 87.6049 21.3164C88.1934 22.2257 88.4879 23.2393 88.4879 24.3571C88.4879 24.5956 88.4729 24.8935 88.4432 25.2514ZM77.4223 21.2943C76.5728 21.8456 76.0508 22.5834 75.8575 23.5076H85.8052C85.6115 22.5836 85.0901 21.8458 84.2404 21.2943C83.3911 20.7431 82.2582 20.467 80.8427 20.467C79.4119 20.4668 78.2717 20.7429 77.4223 21.2943Z" fill="black"/>
<path d="M89.3599 30.0131V27.6656C89.6579 27.7701 89.9484 27.8221 90.2318 27.8221C90.8426 27.8221 91.2935 27.6434 91.5842 27.2855C91.8746 26.9278 92.0648 26.4063 92.1542 25.7206L92.959 18.6783H104.673V29.9908H101.923V20.981H95.351L94.7475 26.3467C94.5982 27.6285 94.2033 28.601 93.5626 29.264C92.9215 29.9272 92.0498 30.259 90.9471 30.259C90.306 30.259 89.7767 30.1772 89.3599 30.0131Z" fill="black"/>
<path d="M122.601 25.2514H110.038C110.247 26.1455 110.776 26.8608 111.625 27.3974C112.475 27.934 113.607 28.2024 115.023 28.2024C117.228 28.2024 118.779 27.5914 119.673 26.3689H122.378C122.139 26.995 121.733 27.6024 121.16 28.191C120.586 28.78 119.781 29.2718 118.745 29.6666C117.709 30.0612 116.446 30.259 114.956 30.259C113.346 30.259 111.968 29.998 110.82 29.4765C109.673 28.9549 108.805 28.247 108.216 27.3527C107.627 26.4586 107.333 25.4526 107.333 24.3346C107.333 23.2169 107.631 22.2074 108.227 21.3055C108.823 20.4038 109.695 19.6923 110.843 19.1704C111.99 18.649 113.376 18.388 115.001 18.388C116.625 18.388 118.011 18.649 119.159 19.1704C120.306 19.6923 121.174 20.4077 121.763 21.3164C122.352 22.2257 122.646 23.2393 122.646 24.3571C122.646 24.5956 122.631 24.8935 122.601 25.2514ZM111.58 21.2943C110.731 21.8456 110.209 22.5834 110.016 23.5076H119.963C119.769 22.5836 119.248 21.8458 118.398 21.2943C117.549 20.7431 116.416 20.467 115.001 20.467C113.57 20.4668 112.43 20.7429 111.58 21.2943Z" fill="black"/>
<path d="M131.432 24.0887L138.764 29.9908H134.874L128.056 24.2899V29.9908H125.307V18.6785H128.056V23.9322L134.718 18.6785H138.541L131.432 24.0887Z" fill="black"/>
<path d="M142.419 29.4765C141.249 28.9551 140.366 28.247 139.77 27.3527C139.174 26.4586 138.875 25.4526 138.875 24.3348C138.875 23.2169 139.174 22.2074 139.77 21.3055C140.366 20.4038 141.249 19.6923 142.419 19.1705C143.589 18.649 145.001 18.388 146.655 18.388C148.309 18.388 149.721 18.649 150.891 19.1705C152.061 19.6923 152.944 20.4038 153.54 21.3055C154.137 22.2074 154.435 23.2169 154.435 24.3348C154.435 25.4526 154.137 26.4586 153.54 27.3527C152.944 28.247 152.061 28.9551 150.891 29.4765C149.721 29.998 148.31 30.259 146.655 30.259C145.001 30.259 143.589 29.998 142.419 29.4765ZM149.405 27.5539C150.165 27.2261 150.735 26.7824 151.115 26.2237C151.495 25.6648 151.685 25.0353 151.685 24.3346C151.685 23.634 151.495 23.0045 151.115 22.4456C150.735 21.8863 150.165 21.443 149.405 21.1154C148.645 20.7876 147.728 20.6235 146.655 20.6235C145.582 20.6235 144.666 20.7876 143.906 21.1154C143.145 21.4432 142.576 21.8865 142.195 22.4456C141.815 23.0045 141.625 23.634 141.625 24.3346C141.625 25.0353 141.815 25.6648 142.195 26.2237C142.576 26.7826 143.145 27.2263 143.906 27.5539C144.666 27.8819 145.582 28.0458 146.655 28.0458C147.728 28.0458 148.645 27.8819 149.405 27.5539Z" fill="black"/>
<path d="M157.095 29.9908V18.6785H161.364L165.008 25.0724C165.366 25.7878 165.545 26.317 165.545 26.6596V26.7268H165.88V26.6596C165.88 26.3767 166.059 25.8474 166.417 25.0724L170.083 18.6785H174.33V29.9908H171.693V23.1721C171.693 22.0843 171.796 21.0857 172.006 20.1764H171.67L167.065 28.2022H164.36L159.755 20.1764H159.442C159.65 21.19 159.755 22.1884 159.755 23.1721V29.9908H157.095Z" fill="black"/>
<path d="M186.648 24.1334L177.191 26.3019V24.0662L186.648 21.8976V24.1334Z" fill="black"/>
<path d="M193.723 29.2083C192.195 28.5079 191.04 27.5427 190.257 26.3132C189.475 25.0835 189.084 23.7011 189.084 22.1661C189.084 20.6313 189.475 19.2484 190.257 18.0189C191.04 16.7892 192.195 15.8245 193.723 15.1236C195.25 14.4233 197.087 14.0729 199.233 14.0729C201.23 14.0729 202.951 14.3563 204.397 14.9224C205.843 15.4891 206.971 16.2566 207.784 17.2251C208.596 18.1942 209.121 19.2969 209.36 20.5339H206.253C205.969 19.4311 205.246 18.5072 204.084 17.7617C202.922 17.0167 201.304 16.644 199.233 16.644C197.743 16.644 196.468 16.8863 195.41 17.3706C194.352 17.855 193.551 18.5146 193.007 19.3491C192.463 20.184 192.191 21.1228 192.191 22.1659C192.191 23.2091 192.463 24.1481 193.007 24.9828C193.551 25.8177 194.352 26.4773 195.41 26.9613C196.468 27.446 197.743 27.6879 199.233 27.6879C201.304 27.6879 202.922 27.3156 204.084 26.5701C205.246 25.8251 205.969 24.9009 206.253 23.798H209.36C209.017 25.7358 207.996 27.2967 206.297 28.4817C204.598 29.6666 202.243 30.259 199.233 30.259C197.087 30.259 195.25 29.9089 193.723 29.2083Z" fill="black"/>
<path d="M228.563 27.4197H231V33.8584H228.004V29.9906H212.915V33.8584H209.919V27.4197H210.859C212.11 27.4197 212.826 26.5852 213.004 24.9158L214.234 14.3411H228.563L228.563 27.4197ZM225.568 27.4197V16.9122H216.939L216.089 24.6251C216.015 25.3705 215.873 25.9741 215.665 26.4359C215.455 26.8981 215.173 27.2261 214.815 27.4197H225.568Z" fill="black"/>
<defs>
<linearGradient id="paint0_linear_32_110" x1="-17.5439" y1="39.7384" x2="128.427" y2="-35.8487" gradientUnits="userSpaceOnUse">
<stop stop-color="#1EB7F3"/>
<stop offset="0.1255" stop-color="#1EB7F3"/>
<stop offset="0.4121" stop-color="#B67FF9"/>
<stop offset="1" stop-color="#B67FF9"/>
</linearGradient>
</defs>
</svg>
