<svg width="30" height="30" viewBox="0 0 30 30" fill="none" xmlns="http://www.w3.org/2000/svg">
<path d="M20.375 10.0219C20.1806 12.2606 19.3399 17.6908 18.9128 20.1973C18.7328 21.2575 18.3757 21.6129 18.0315 21.6484C17.2819 21.7244 16.7131 21.1046 15.9869 20.584C14.8509 19.7675 14.2099 19.2585 13.1085 18.4618C11.8347 17.5412 12.6596 17.0347 13.3843 16.2075C13.5756 15.9901 16.8773 12.697 16.9406 12.3986C16.9497 12.3615 16.9565 12.221 16.8819 12.1474C16.8043 12.0739 16.6935 12.1003 16.6144 12.1185C16.5007 12.1474 14.6867 13.4638 11.1718 16.0661C10.6558 16.4537 10.1902 16.6421 9.7729 16.633C9.31188 16.6215 8.42672 16.3471 7.76682 16.1116C6.95927 15.824 6.31744 15.6712 6.37243 15.1828C6.40181 14.9274 6.722 14.6671 7.33218 14.401C11.0942 12.6036 13.6012 11.4185 14.857 10.845C18.4397 9.21043 19.1847 8.92532 19.6691 8.91706C19.7768 8.9154 20.0149 8.94431 20.1693 9.08149C20.3004 9.19718 20.3358 9.35341 20.3539 9.46497C20.3704 9.57488 20.3908 9.82606 20.375 10.0219Z" fill="#999999"/>
<circle cx="14.6484" cy="14.6484" r="13.3984" stroke="#999999" stroke-width="2.5"/>
</svg>
