<svg width="25" height="25" viewBox="0 0 25 25" fill="none" xmlns="http://www.w3.org/2000/svg">
<path d="M17.3867 8.55156C17.2209 10.4619 16.5035 15.0957 16.139 17.2345C15.9854 18.1393 15.6807 18.4425 15.3869 18.4728C14.7473 18.5377 14.2619 18.0088 13.6422 17.5645C12.6729 16.8678 12.1258 16.4334 11.186 15.7536C10.099 14.968 10.8029 14.5358 11.4213 13.8299C11.5846 13.6444 14.4021 10.8343 14.4561 10.5797C14.4638 10.548 14.4696 10.4281 14.406 10.3653C14.3397 10.3025 14.2452 10.3251 14.1777 10.3406C14.0807 10.3653 12.5327 11.4887 9.53333 13.7093C9.09299 14.04 8.69573 14.2008 8.3396 14.193C7.94619 14.1832 7.19086 13.9491 6.62774 13.7481C5.93863 13.5027 5.39094 13.3722 5.43786 12.9555C5.46293 12.7376 5.73617 12.5154 6.25685 12.2883C9.46712 10.7546 11.6064 9.74334 12.678 9.25395C15.7353 7.85909 16.371 7.6158 16.7844 7.60874C16.8763 7.60733 17.0794 7.632 17.2112 7.74906C17.3231 7.84778 17.3533 7.9811 17.3687 8.0763C17.3828 8.17009 17.4002 8.38443 17.3867 8.55156Z" fill="#999999"/>
<circle cx="12.5" cy="12.5" r="11.5" stroke="#999999" stroke-width="2"/>
</svg>
