<svg width="29" height="29" viewBox="0 0 29 29" fill="none" xmlns="http://www.w3.org/2000/svg">
<path fill-rule="evenodd" clip-rule="evenodd" d="M24.7742 4.21544C22.049 1.498 18.424 0.00181466 14.5611 0C6.60266 0 0.124902 6.44654 0.121255 14.3693C0.11852 16.9026 0.784972 19.3751 2.04862 21.5545L0 29L7.6548 27.002C9.7627 28.1471 12.1377 28.7496 14.5547 28.7523H14.5602C22.5186 28.7523 28.9982 22.3058 29 14.3802C29.0018 10.5413 27.502 6.93017 24.7742 4.21544ZM14.5602 26.3243H14.5556C12.4012 26.3243 10.2888 25.7463 8.44708 24.6593L8.00855 24.4008L3.46634 25.5866L4.67894 21.1807L4.39358 20.7279C3.19193 18.8261 2.55737 16.6277 2.55737 14.3702C2.56102 7.78574 7.94381 2.42798 14.5656 2.42798C17.7712 2.42888 20.7845 3.67373 23.051 5.93025C25.3167 8.18768 26.5639 11.1892 26.563 14.3802C26.5593 20.9656 21.1756 26.3243 14.5602 26.3243ZM21.1446 17.378C20.7836 17.1984 19.0094 16.3301 18.6793 16.2094C18.3484 16.0887 18.1077 16.0298 17.8679 16.3891C17.6254 16.7484 16.9352 17.5577 16.7237 17.7972C16.514 18.0377 16.3025 18.0676 15.9433 17.8879C15.5813 17.7083 14.4189 17.329 13.0412 16.106C11.9691 15.1533 11.2433 13.9783 11.0336 13.6181C10.823 13.2579 11.0126 13.0655 11.1923 12.885C11.3545 12.7244 11.5533 12.4667 11.7338 12.2552C11.9135 12.0466 11.9745 11.8959 12.0949 11.6573C12.2152 11.4169 12.155 11.2073 12.0648 11.0277C11.9745 10.8489 11.2525 9.08054 10.9525 8.36194C10.6589 7.66239 10.3626 7.75674 10.1401 7.74585C9.93044 7.73405 9.68975 7.73134 9.44814 7.73134C9.20653 7.73134 8.81633 7.82299 8.4872 8.18229C8.15442 8.54159 7.22173 9.40987 7.22173 11.1773C7.22173 12.9439 8.51636 14.6515 8.69688 14.8929C8.8774 15.1324 11.2406 18.759 14.8592 20.3141C15.7199 20.6843 16.3927 20.9039 16.917 21.0708C17.7813 21.344 18.5681 21.3049 19.189 21.2124C19.8828 21.1099 21.3233 20.3441 21.6251 19.5048C21.926 18.6655 21.9259 17.9469 21.8348 17.7972C21.7454 17.6466 21.5066 17.5586 21.1446 17.378Z" fill="#999999"/>
</svg>
