<svg width="21" height="21" viewBox="0 0 21 21" fill="none" xmlns="http://www.w3.org/2000/svg">
<path d="M14.6048 7.18331C14.4655 8.788 13.8629 12.6804 13.5567 14.477C13.4277 15.237 13.1717 15.4917 12.925 15.5172C12.3877 15.5717 11.98 15.1274 11.4595 14.7542C10.6452 14.169 10.1857 13.8041 9.39624 13.233C8.48314 12.5732 9.07443 12.2101 9.59388 11.6171C9.73103 11.4613 12.0977 9.10078 12.1431 8.88694C12.1495 8.86029 12.1544 8.75958 12.101 8.70686C12.0454 8.65414 11.966 8.67311 11.9093 8.68614C11.8277 8.70687 10.5275 9.65048 8.00797 11.5158C7.63809 11.7936 7.30439 11.9287 7.00525 11.9221C6.67478 11.9139 6.0403 11.7172 5.56728 11.5484C4.98843 11.3422 4.52837 11.2327 4.56779 10.8826C4.58885 10.6996 4.81836 10.5129 5.25574 10.3222C7.95236 9.03383 9.74937 8.18441 10.6495 7.77331C13.2176 6.60163 13.7517 6.39727 14.0989 6.39134C14.1761 6.39016 14.3467 6.41088 14.4574 6.50921C14.5514 6.59214 14.5767 6.70412 14.5897 6.78409C14.6016 6.86287 14.6162 7.04292 14.6048 7.18331Z" fill="#999999"/>
<circle cx="10.5" cy="10.5" r="9.65" stroke="#999999" stroke-width="1.7"/>
</svg>
