<svg width="21" height="21" viewBox="0 0 21 21" fill="none" xmlns="http://www.w3.org/2000/svg">
<path fill-rule="evenodd" clip-rule="evenodd" d="M17.9399 3.05256C15.9665 1.08476 13.3415 0.00131406 10.5442 0C4.78124 0 0.0904461 4.66819 0.0878052 10.4054C0.0858246 12.2398 0.568428 14.0302 1.48348 15.6084L0 21L5.54313 19.5532C7.06954 20.3824 8.78939 20.8187 10.5396 20.8206H10.5436C16.3065 20.8206 20.9987 16.1524 21 10.4133C21.0013 7.63338 19.9153 5.0184 17.9399 3.05256ZM10.5436 19.0624H10.5403C8.9802 19.0624 7.45048 18.6439 6.11685 17.8568L5.7993 17.6695L2.51011 18.5282L3.3882 15.3377L3.18156 15.0098C2.3114 13.6327 1.85189 12.0407 1.85189 10.406C1.85453 5.63795 5.75241 1.75819 10.5475 1.75819C12.8688 1.75885 15.0508 2.66028 16.6921 4.29432C18.3327 5.92901 19.2359 8.1025 19.2353 10.4133C19.2326 15.182 15.3341 19.0624 10.5436 19.0624ZM15.3116 12.5841C15.0502 12.454 13.7654 11.8252 13.5264 11.7378C13.2867 11.6505 13.1125 11.6078 12.9388 11.8679C12.7632 12.1281 12.2634 12.7142 12.1103 12.8877C11.9584 13.0618 11.8052 13.0834 11.5451 12.9533C11.283 12.8232 10.4412 12.5486 9.44366 11.6629C8.66725 10.9731 8.14172 10.1222 7.98987 9.86136C7.83736 9.60052 7.97468 9.46124 8.10474 9.33049C8.22226 9.21419 8.3662 9.02758 8.49692 8.87449C8.62698 8.72337 8.67121 8.6143 8.75836 8.44151C8.84551 8.26739 8.80192 8.11564 8.73656 7.98555C8.6712 7.85611 8.14833 6.57557 7.93112 6.0552C7.71853 5.54863 7.50395 5.61695 7.34286 5.60906C7.19101 5.60052 7.01671 5.59856 6.84176 5.59856C6.6668 5.59856 6.38424 5.66492 6.1459 5.92511C5.90493 6.18529 5.22953 6.81405 5.22953 8.09394C5.22953 9.37318 6.16702 10.6097 6.29774 10.7845C6.42846 10.958 8.13973 13.5841 10.7601 14.7102C11.3834 14.9783 11.8706 15.1373 12.2502 15.2582C12.8761 15.456 13.4459 15.4277 13.8955 15.3607C14.3979 15.2865 15.441 14.7319 15.6596 14.1242C15.8774 13.5164 15.8774 12.9961 15.8114 12.8877C15.7467 12.7786 15.5737 12.7148 15.3116 12.5841Z" fill="#999999"/>
</svg>
