<svg width="25" height="25" viewBox="0 0 25 25" fill="none" xmlns="http://www.w3.org/2000/svg">
<path fill-rule="evenodd" clip-rule="evenodd" d="M21.357 3.634C19.0078 1.29138 15.8828 0.00156436 12.5526 0C5.69195 0 0.107674 5.55737 0.10453 12.3874C0.102172 14.5712 0.6767 16.7026 1.76605 18.5814L0 25L6.59897 23.2776C8.41612 24.2647 10.4636 24.7841 12.5472 24.7865H12.5519C19.4126 24.7865 24.9984 19.2291 25 12.3968C25.0016 9.08736 23.7086 5.97428 21.357 3.634ZM12.5519 22.6934H12.5479C10.6907 22.6934 8.86962 22.1951 7.28196 21.2581L6.90392 21.0352L2.98822 22.0574L4.03357 18.2592L3.78757 17.8689C2.75167 16.2294 2.20463 14.3342 2.20463 12.3881C2.20777 6.71184 6.84811 2.09308 12.5566 2.09308C15.32 2.09387 17.9177 3.16701 19.8716 5.11229C21.8247 7.05835 22.8999 9.64584 22.8991 12.3968C22.896 18.0738 18.2548 22.6934 12.5519 22.6934ZM18.2281 14.981C17.9169 14.8262 16.3874 14.0777 16.1029 13.9736C15.8175 13.8696 15.6101 13.8188 15.4034 14.1285C15.1943 14.4382 14.5993 15.1359 14.417 15.3424C14.2362 15.5497 14.0539 15.5755 13.7442 15.4206C13.4322 15.2658 12.43 14.9388 11.2424 13.8844C10.3182 13.0632 9.69253 12.0502 9.51175 11.7397C9.3302 11.4292 9.49366 11.2634 9.6485 11.1077C9.7884 10.9693 9.95976 10.7471 10.1154 10.5649C10.2702 10.385 10.3229 10.2551 10.4266 10.0494C10.5304 9.84213 10.4785 9.66147 10.4007 9.5066C10.3229 9.35251 9.70039 7.82805 9.44181 7.20857C9.18873 6.60551 8.93327 6.68684 8.7415 6.67746C8.56073 6.66729 8.35323 6.66495 8.14495 6.66495C7.93667 6.66495 7.60029 6.74396 7.31655 7.0537C7.02967 7.36344 6.22563 8.11196 6.22563 9.63564C6.22563 11.1585 7.34169 12.6306 7.49731 12.8387C7.65293 13.0452 9.69016 16.1715 12.8097 17.5122C13.5516 17.8313 14.1317 18.0206 14.5836 18.1645C15.3287 18.4 16.007 18.3663 16.5422 18.2865C17.1403 18.1982 18.3822 17.538 18.6423 16.8145C18.9017 16.091 18.9017 15.4715 18.8231 15.3424C18.7461 15.2126 18.5401 15.1367 18.2281 14.981Z" fill="#999999"/>
</svg>
