<svg width="346" height="286" viewBox="0 0 346 286" fill="none" xmlns="http://www.w3.org/2000/svg">
<g clip-path="url(#clip0_4_300)">
<path d="M1.5 1.5L8.5 8.5L1.5 15.5" stroke="white" stroke-width="2"/>
</g>
<g clip-path="url(#clip1_4_300)">
<path d="M51.5 1.5L58.5 8.5L51.5 15.5" stroke="black" stroke-width="2"/>
</g>
<g clip-path="url(#clip2_4_300)">
<path d="M101.5 1.5L108.5 8.5L101.5 15.5" stroke="white" stroke-width="2"/>
</g>
<g clip-path="url(#clip3_4_300)">
<path d="M151.5 9.5L156.5 14.5M156.5 14.5L161.5 9.5M156.5 14.5V1.5" stroke="white" stroke-width="2"/>
</g>
<g clip-path="url(#clip4_4_300)">
<path d="M213.5 10.5L208.5 15.5L203.5 10.5" stroke="#1496FF"/>
</g>
<g clip-path="url(#clip5_4_300)">
<path d="M255.5 6L260.5 11L255.5 16" stroke="#1496FF"/>
</g>
<g clip-path="url(#clip6_4_300)">
<path d="M10.5 57.5L2.5 65.5L10.5 73.5" stroke="white" stroke-width="2"/>
</g>
<g clip-path="url(#clip7_4_300)">
<path d="M60.5 57.5L53.5 64.5L60.5 71.5" stroke="#1496FF" stroke-width="2"/>
</g>
<g clip-path="url(#clip8_4_300)">
<path d="M110.5 57.5L103.5 64.5L110.5 71.5" stroke="white" stroke-width="2"/>
</g>
<g clip-path="url(#clip9_4_300)">
<path d="M161.5 57.5L153.5 65.5L161.5 73.5" stroke="#1496FF" stroke-width="2"/>
</g>
<g clip-path="url(#clip10_4_300)">
<path d="M220 58.5L205.5 73L220 87.5" stroke="white" stroke-width="3"/>
</g>
<g clip-path="url(#clip11_4_300)">
<path d="M274.5 59.25H262.5V70.25H274.5V59.25Z" stroke="#999999" stroke-width="2"/>
<path d="M265.5 56.75V61.25" stroke="#999999" stroke-width="2"/>
<path d="M265.5 62.25V64.25" stroke="#999999" stroke-width="2"/>
<path d="M265.5 65.25V67.25" stroke="#999999" stroke-width="2"/>
<path d="M268.5 62.25V64.25" stroke="#999999" stroke-width="2"/>
<path d="M268.5 65.25V67.25" stroke="#999999" stroke-width="2"/>
<path d="M271.5 62.25V64.25" stroke="#999999" stroke-width="2"/>
<path d="M271.5 56.75V61.25" stroke="#999999" stroke-width="2"/>
</g>
<g clip-path="url(#clip12_4_300)">
<path d="M7.5 143C10.8137 143 13.5 140.314 13.5 137C13.5 133.686 10.8137 131 7.5 131C4.18629 131 1.5 133.686 1.5 137C1.5 140.314 4.18629 143 7.5 143Z" stroke="#999999" stroke-width="2"/>
<path d="M7.5 133V137H10.5" stroke="#999999" stroke-width="2"/>
</g>
<g clip-path="url(#clip13_4_300)">
<path d="M56.0586 139.143L60.0469 134.736L62.755 131C64.9581 132.719 63.7488 134.56 63.7488 134.56L61.2431 138.161H68.5L67.1394 144.504L65.2607 147H58.1328C56.5125 147 55.5 145.622 55.5 145.622" stroke="#999999" stroke-width="2" stroke-miterlimit="10" stroke-linecap="round" stroke-linejoin="bevel"/>
</g>
<g clip-path="url(#clip14_4_300)">
<path d="M110.5 133.773L116.333 139.5L125.5 130.5" stroke="#1496FF" stroke-width="2"/>
</g>
<g clip-path="url(#clip15_4_300)">
<path fill-rule="evenodd" clip-rule="evenodd" d="M167.41 145.515C166.939 145.844 166.621 146.018 166.528 146.247C166.429 146.474 166.582 147.47 167.186 148.567C167.792 149.665 169.981 150.414 170.979 150.406C171.875 150.4 172.989 150.283 174.146 149.717C174.851 149.375 175.749 148.924 176.882 148.223C181.642 145.284 184.195 139.746 184.398 139.375C184.603 139.001 186.059 136.355 185.682 133.906C185.304 131.456 183.808 130.454 183.264 130.029C182.723 129.602 182.152 129.559 181.815 129.611C181.474 129.664 181.137 129.722 180.844 129.781C180.535 129.844 180.095 129.778 179.833 130.812C179.564 131.873 178.924 134.479 178.837 134.746C178.747 135.015 178.706 135.32 178.928 135.627C179.148 135.933 179.265 136.125 179.563 136.377C179.863 136.631 180.197 136.945 180.46 137.133C180.75 137.343 181.059 137.568 180.838 138.112C180.619 138.66 179.849 140.445 178.546 141.997C176.868 143.989 175.311 144.766 174.841 145.095C174.372 145.423 174.069 145.424 173.724 145.139C173.374 144.853 172.23 143.88 171.813 143.435C171.398 142.989 171.071 143.124 170.631 143.361C170.191 143.601 167.879 145.189 167.41 145.515Z" fill="#999999"/>
</g>
<g clip-path="url(#clip16_4_300)">
<path d="M235.5 130L237.521 136.219H244.059L238.769 140.062L240.79 146.281L235.5 142.438L230.21 146.281L232.231 140.062L226.94 136.219H233.479L235.5 130Z" fill="#F5F5F5"/>
</g>
<g clip-path="url(#clip17_4_300)">
<path d="M293.5 130L295.521 136.219H302.059L296.769 140.062L298.79 146.281L293.5 142.438L288.21 146.281L290.231 140.062L284.94 136.219H291.479L293.5 130Z" fill="#FFB800"/>
</g>
<path d="M12.5 195.5C13.6046 195.5 14.5 194.605 14.5 193.5C14.5 192.395 13.6046 191.5 12.5 191.5C11.3954 191.5 10.5 192.395 10.5 193.5C10.5 194.605 11.3954 195.5 12.5 195.5Z" fill="#999999" stroke="#999999" stroke-miterlimit="10"/>
<path d="M12.5 205.5C13.6046 205.5 14.5 204.605 14.5 203.5C14.5 202.395 13.6046 201.5 12.5 201.5C11.3954 201.5 10.5 202.395 10.5 203.5C10.5 204.605 11.3954 205.5 12.5 205.5Z" fill="#999999" stroke="#999999" stroke-miterlimit="10"/>
<path d="M3.5 200.5C4.60457 200.5 5.5 199.605 5.5 198.5C5.5 197.395 4.60457 196.5 3.5 196.5C2.39543 196.5 1.5 197.395 1.5 198.5C1.5 199.605 2.39543 200.5 3.5 200.5Z" fill="#999999" stroke="#999999" stroke-miterlimit="10"/>
<path d="M3.5 198.5L12.5 193.5" stroke="#999999" stroke-width="2" stroke-miterlimit="10"/>
<path d="M3.5 198.5L12.5 203.5" stroke="#999999" stroke-width="2" stroke-miterlimit="10"/>
<g clip-path="url(#clip18_4_300)">
<path fill-rule="evenodd" clip-rule="evenodd" d="M80.2742 194.715C77.549 191.998 73.924 190.502 70.0611 190.5C62.1027 190.5 55.6249 196.947 55.6213 204.869C55.6185 207.403 56.285 209.875 57.5486 212.055L55.5 219.5L63.1548 217.502C65.2627 218.647 67.6377 219.25 70.0547 219.252H70.0602C78.0186 219.252 84.4982 212.806 84.5 204.88C84.5018 201.041 83.002 197.43 80.2742 194.715ZM70.0602 216.824H70.0556C67.9012 216.824 65.7888 216.246 63.9471 215.159L63.5085 214.901L58.9663 216.087L60.1789 211.681L59.8936 211.228C58.6919 209.326 58.0574 207.128 58.0574 204.87C58.061 198.286 63.4438 192.928 70.0656 192.928C73.2712 192.929 76.2845 194.174 78.551 196.43C80.8167 198.688 82.0639 201.689 82.063 204.88C82.0593 211.466 76.6756 216.824 70.0602 216.824ZM76.6446 207.878C76.2836 207.698 74.5094 206.83 74.1793 206.709C73.8484 206.589 73.6077 206.53 73.3679 206.889C73.1254 207.248 72.4352 208.058 72.2237 208.297C72.014 208.538 71.8025 208.568 71.4433 208.388C71.0813 208.208 69.9189 207.829 68.5412 206.606C67.4691 205.653 66.7433 204.478 66.5336 204.118C66.323 203.758 66.5126 203.566 66.6923 203.385C66.8545 203.224 67.0533 202.967 67.2338 202.755C67.4135 202.547 67.4745 202.396 67.5949 202.157C67.7152 201.917 67.655 201.707 67.5648 201.528C67.4745 201.349 66.7525 199.581 66.4525 198.862C66.1589 198.162 65.8626 198.257 65.6401 198.246C65.4304 198.234 65.1898 198.231 64.9481 198.231C64.7065 198.231 64.3163 198.323 63.9872 198.682C63.6544 199.042 62.7217 199.91 62.7217 201.677C62.7217 203.444 64.0164 205.152 64.1969 205.393C64.3774 205.632 66.7406 209.259 70.3592 210.814C71.2199 211.184 71.8927 211.404 72.417 211.571C73.2813 211.844 74.0681 211.805 74.689 211.712C75.3828 211.61 76.8233 210.844 77.1251 210.005C77.426 209.166 77.4259 208.447 77.3348 208.297C77.2454 208.147 77.0066 208.059 76.6446 207.878Z" fill="#2EA649"/>
</g>
<g clip-path="url(#clip19_4_300)">
<path fill-rule="evenodd" clip-rule="evenodd" d="M149.274 194.715C146.549 191.998 142.924 190.502 139.061 190.5C131.103 190.5 124.625 196.947 124.621 204.869C124.619 207.403 125.285 209.875 126.549 212.055L124.5 219.5L132.155 217.502C134.263 218.647 136.638 219.25 139.055 219.252H139.06C147.019 219.252 153.498 212.806 153.5 204.88C153.502 201.041 152.002 197.43 149.274 194.715ZM139.06 216.824H139.056C136.901 216.824 134.789 216.246 132.947 215.159L132.509 214.901L127.966 216.087L129.179 211.681L128.894 211.228C127.692 209.326 127.057 207.128 127.057 204.87C127.061 198.286 132.444 192.928 139.066 192.928C142.271 192.929 145.285 194.174 147.551 196.43C149.817 198.688 151.064 201.689 151.063 204.88C151.059 211.466 145.676 216.824 139.06 216.824ZM145.645 207.878C145.284 207.698 143.509 206.83 143.179 206.709C142.848 206.589 142.608 206.53 142.368 206.889C142.125 207.248 141.435 208.058 141.224 208.297C141.014 208.538 140.803 208.568 140.443 208.388C140.081 208.208 138.919 207.829 137.541 206.606C136.469 205.653 135.743 204.478 135.534 204.118C135.323 203.758 135.513 203.566 135.692 203.385C135.854 203.224 136.053 202.967 136.234 202.755C136.413 202.547 136.475 202.396 136.595 202.157C136.715 201.917 136.655 201.707 136.565 201.528C136.475 201.349 135.753 199.581 135.453 198.862C135.159 198.162 134.863 198.257 134.64 198.246C134.43 198.234 134.19 198.231 133.948 198.231C133.707 198.231 133.316 198.323 132.987 198.682C132.654 199.042 131.722 199.91 131.722 201.677C131.722 203.444 133.016 205.152 133.197 205.393C133.377 205.632 135.741 209.259 139.359 210.814C140.22 211.184 140.893 211.404 141.417 211.571C142.281 211.844 143.068 211.805 143.689 211.712C144.383 211.61 145.823 210.844 146.125 210.005C146.426 209.166 146.426 208.447 146.335 208.297C146.245 208.147 146.007 208.059 145.645 207.878Z" fill="#999999"/>
</g>
<g clip-path="url(#clip20_4_300)">
<path d="M213.875 200.522C213.681 202.761 212.84 208.191 212.413 210.697C212.233 211.757 211.876 212.113 211.531 212.148C210.782 212.224 210.213 211.605 209.487 211.084C208.351 210.267 207.71 209.758 206.608 208.962C205.335 208.041 206.16 207.535 206.884 206.707C207.076 206.49 210.377 203.197 210.441 202.899C210.45 202.861 210.456 202.721 210.382 202.647C210.304 202.574 210.193 202.6 210.114 202.618C210.001 202.647 208.187 203.964 204.672 206.566C204.156 206.954 203.69 207.142 203.273 207.133C202.812 207.121 201.927 206.847 201.267 206.612C200.459 206.324 199.817 206.171 199.872 205.683C199.902 205.427 200.222 205.167 200.832 204.901C204.594 203.104 207.101 201.918 208.357 201.345C211.94 199.71 212.685 199.425 213.169 199.417C213.277 199.415 213.515 199.444 213.669 199.581C213.8 199.697 213.836 199.853 213.854 199.965C213.87 200.075 213.891 200.326 213.875 200.522Z" fill="#999999"/>
<path d="M208.148 218.547C215.548 218.547 221.547 212.548 221.547 205.148C221.547 197.749 215.548 191.75 208.148 191.75C200.749 191.75 194.75 197.749 194.75 205.148C194.75 212.548 200.749 218.547 208.148 218.547Z" stroke="#999999" stroke-width="2.5"/>
</g>
<g clip-path="url(#clip21_4_300)">
<path fill-rule="evenodd" clip-rule="evenodd" d="M281.44 193.553C279.466 191.585 276.842 190.501 274.044 190.5C268.281 190.5 263.59 195.168 263.588 200.905C263.586 202.74 264.068 204.53 264.983 206.108L263.5 211.5L269.043 210.053C270.57 210.882 272.289 211.319 274.04 211.321H274.044C279.806 211.321 284.499 206.652 284.5 200.913C284.501 198.133 283.415 195.518 281.44 193.553ZM274.044 209.562H274.04C272.48 209.562 270.95 209.144 269.617 208.357L269.299 208.17L266.01 209.028L266.888 205.838L266.682 205.51C265.811 204.133 265.352 202.541 265.352 200.906C265.355 196.138 269.252 192.258 274.047 192.258C276.369 192.259 278.551 193.16 280.192 194.794C281.833 196.429 282.736 198.602 282.735 200.913C282.733 205.682 278.834 209.562 274.044 209.562ZM278.812 203.084C278.55 202.954 277.265 202.325 277.026 202.238C276.787 202.15 276.612 202.108 276.439 202.368C276.263 202.628 275.763 203.214 275.61 203.388C275.458 203.562 275.305 203.583 275.045 203.453C274.783 203.323 273.941 203.049 272.944 202.163C272.167 201.473 271.642 200.622 271.49 200.361C271.337 200.101 271.475 199.961 271.605 199.83C271.722 199.714 271.866 199.528 271.997 199.374C272.127 199.223 272.171 199.114 272.258 198.942C272.346 198.767 272.302 198.616 272.237 198.486C272.171 198.356 271.648 197.076 271.431 196.555C271.219 196.049 271.004 196.117 270.843 196.109C270.691 196.101 270.517 196.099 270.342 196.099C270.167 196.099 269.884 196.165 269.646 196.425C269.405 196.685 268.73 197.314 268.73 198.594C268.73 199.873 269.667 201.11 269.798 201.285C269.928 201.458 271.64 204.084 274.26 205.21C274.883 205.478 275.371 205.637 275.75 205.758C276.376 205.956 276.946 205.928 277.396 205.861C277.898 205.786 278.941 205.232 279.16 204.624C279.377 204.016 279.377 203.496 279.311 203.388C279.247 203.279 279.074 203.215 278.812 203.084Z" fill="#999999"/>
</g>
<g clip-path="url(#clip22_4_300)">
<path d="M341.248 191.743H328.5C326.76 191.743 325.35 193.153 325.35 194.893V204.064C325.35 205.804 326.76 207.214 328.5 207.214H341.248C342.988 207.214 344.398 205.804 344.398 204.064V194.893C344.398 193.153 342.988 191.743 341.248 191.743Z" stroke="#999999" stroke-width="1.7"/>
<path d="M325.573 193.04L334.874 202.34L344.175 193.04" stroke="#999999" stroke-width="1.7"/>
</g>
<g clip-path="url(#clip23_4_300)">
<path d="M15.1048 267.683C14.9655 269.288 14.3629 273.18 14.0567 274.977C13.9277 275.737 13.6717 275.992 13.425 276.017C12.8877 276.072 12.48 275.627 11.9595 275.254C11.1452 274.669 10.6857 274.304 9.89624 273.733C8.98314 273.073 9.57443 272.71 10.0939 272.117C10.231 271.961 12.5977 269.601 12.6431 269.387C12.6495 269.36 12.6544 269.26 12.601 269.207C12.5454 269.154 12.466 269.173 12.4093 269.186C12.3277 269.207 11.0275 270.15 8.50797 272.016C8.13809 272.294 7.80439 272.429 7.50525 272.422C7.17478 272.414 6.5403 272.217 6.06728 272.048C5.48843 271.842 5.02837 271.733 5.06779 271.383C5.08885 271.2 5.31836 271.013 5.75574 270.822C8.45236 269.534 10.2494 268.684 11.1495 268.273C13.7176 267.102 14.2517 266.897 14.5989 266.891C14.6761 266.89 14.8467 266.911 14.9574 267.009C15.0514 267.092 15.0767 267.204 15.0897 267.284C15.1016 267.363 15.1162 267.543 15.1048 267.683Z" fill="#999999"/>
<path d="M11 280.65C16.3295 280.65 20.65 276.33 20.65 271C20.65 265.67 16.3295 261.35 11 261.35C5.67043 261.35 1.34998 265.67 1.34998 271C1.34998 276.33 5.67043 280.65 11 280.65Z" stroke="#999999" stroke-width="1.7"/>
</g>
<g clip-path="url(#clip24_4_300)">
<path fill-rule="evenodd" clip-rule="evenodd" d="M82.857 264.134C80.5078 261.791 77.3828 260.502 74.0526 260.5C67.1919 260.5 61.6077 266.057 61.6045 272.887C61.6022 275.071 62.1767 277.203 63.266 279.081L61.5 285.5L68.099 283.778C69.9161 284.765 71.9636 285.284 74.0472 285.287H74.0519C80.9126 285.287 86.4984 279.729 86.5 272.897C86.5016 269.587 85.2086 266.474 82.857 264.134ZM74.0519 283.193H74.0479C72.1907 283.193 70.3696 282.695 68.782 281.758L68.4039 281.535L64.4882 282.557L65.5336 278.759L65.2876 278.369C64.2517 276.729 63.7046 274.834 63.7046 272.888C63.7078 267.212 68.3481 262.593 74.0566 262.593C76.82 262.594 79.4177 263.667 81.3716 265.612C83.3247 267.558 84.3999 270.146 84.3991 272.897C84.396 278.574 79.7548 283.193 74.0519 283.193ZM79.7281 275.481C79.4169 275.326 77.8874 274.578 77.6029 274.474C77.3175 274.37 77.1101 274.319 76.9034 274.628C76.6943 274.938 76.0993 275.636 75.917 275.842C75.7362 276.05 75.5539 276.075 75.2442 275.921C74.9322 275.766 73.93 275.439 72.7424 274.384C71.8182 273.563 71.1925 272.55 71.0118 272.24C70.8302 271.929 70.9937 271.763 71.1485 271.608C71.2884 271.469 71.4598 271.247 71.6154 271.065C71.7702 270.885 71.8229 270.755 71.9266 270.549C72.0304 270.342 71.9785 270.161 71.9007 270.007C71.8229 269.853 71.2004 268.328 70.9418 267.709C70.6887 267.106 70.4333 267.187 70.2415 267.177C70.0607 267.167 69.8532 267.165 69.6449 267.165C69.4367 267.165 69.1003 267.244 68.8165 267.554C68.5297 267.863 67.7256 268.612 67.7256 270.136C67.7256 271.659 68.8417 273.131 68.9973 273.339C69.1529 273.545 71.1902 276.671 74.3097 278.012C75.0516 278.331 75.6317 278.521 76.0836 278.664C76.8287 278.9 77.507 278.866 78.0422 278.787C78.6403 278.698 79.8822 278.038 80.1423 277.315C80.4017 276.591 80.4017 275.971 80.3231 275.842C80.2461 275.713 80.0401 275.637 79.7281 275.481Z" fill="#999999"/>
</g>
<g clip-path="url(#clip25_4_300)">
<path d="M143.887 269.052C143.721 270.962 143.004 275.596 142.639 277.735C142.485 278.639 142.181 278.943 141.887 278.973C141.247 279.038 140.762 278.509 140.142 278.065C139.173 277.368 138.626 276.933 137.686 276.254C136.599 275.468 137.303 275.036 137.921 274.33C138.085 274.144 140.902 271.334 140.956 271.08C140.964 271.048 140.97 270.928 140.906 270.865C140.84 270.803 140.745 270.825 140.678 270.841C140.581 270.865 139.033 271.989 136.033 274.209C135.593 274.54 135.196 274.701 134.84 274.693C134.446 274.683 133.691 274.449 133.128 274.248C132.439 274.003 131.891 273.872 131.938 273.456C131.963 273.238 132.236 273.015 132.757 272.788C135.967 271.255 138.106 270.243 139.178 269.754C142.235 268.359 142.871 268.116 143.284 268.109C143.376 268.107 143.579 268.132 143.711 268.249C143.823 268.348 143.853 268.481 143.869 268.576C143.883 268.67 143.9 268.884 143.887 269.052Z" fill="#999999"/>
<path d="M139 284.5C145.351 284.5 150.5 279.351 150.5 273C150.5 266.649 145.351 261.5 139 261.5C132.649 261.5 127.5 266.649 127.5 273C127.5 279.351 132.649 284.5 139 284.5Z" stroke="#999999" stroke-width="2"/>
</g>
<g clip-path="url(#clip26_4_300)">
<path d="M200 262L193 269L200 276" stroke="#1496FF" stroke-width="2"/>
</g>
<defs>
<clipPath id="clip0_4_300">
<rect width="10" height="16" fill="white" transform="translate(0.5 0.5)"/>
</clipPath>
<clipPath id="clip1_4_300">
<rect width="10" height="16" fill="white" transform="translate(50.5 0.5)"/>
</clipPath>
<clipPath id="clip2_4_300">
<rect width="10" height="16" fill="white" transform="translate(100.5 0.5)"/>
</clipPath>
<clipPath id="clip3_4_300">
<rect width="12" height="15" fill="white" transform="translate(150.5 1.5)"/>
</clipPath>
<clipPath id="clip4_4_300">
<rect width="12" height="7" fill="white" transform="translate(202.5 9.5)"/>
</clipPath>
<clipPath id="clip5_4_300">
<rect width="7" height="11" fill="white" transform="translate(254.5 5.5)"/>
</clipPath>
<clipPath id="clip6_4_300">
<rect width="11" height="18" fill="white" transform="translate(0.5 56.5)"/>
</clipPath>
<clipPath id="clip7_4_300">
<rect width="10" height="16" fill="white" transform="translate(51.5 56.5)"/>
</clipPath>
<clipPath id="clip8_4_300">
<rect width="10" height="16" fill="white" transform="translate(101.5 56.5)"/>
</clipPath>
<clipPath id="clip9_4_300">
<rect width="11" height="18" fill="white" transform="translate(151.5 56.5)"/>
</clipPath>
<clipPath id="clip10_4_300">
<rect width="19" height="33" fill="white" transform="translate(202.5 56.5)"/>
</clipPath>
<clipPath id="clip11_4_300">
<rect width="14" height="15" fill="white" transform="translate(261.5 56.5)"/>
</clipPath>
<clipPath id="clip12_4_300">
<rect width="14" height="15" fill="white" transform="translate(0.5 129.5)"/>
</clipPath>
<clipPath id="clip13_4_300">
<rect width="15" height="19" fill="white" transform="translate(54.5 129.5)"/>
</clipPath>
<clipPath id="clip14_4_300">
<rect width="17" height="12" fill="white" transform="translate(109.5 129.5)"/>
</clipPath>
<clipPath id="clip15_4_300">
<rect width="20" height="21" fill="white" transform="translate(166.5 129.5)"/>
</clipPath>
<clipPath id="clip16_4_300">
<rect width="18" height="17" fill="white" transform="translate(226.5 129.5)"/>
</clipPath>
<clipPath id="clip17_4_300">
<rect width="18" height="17" fill="white" transform="translate(284.5 129.5)"/>
</clipPath>
<clipPath id="clip18_4_300">
<rect width="29" height="29" fill="white" transform="translate(55.5 190.5)"/>
</clipPath>
<clipPath id="clip19_4_300">
<rect width="29" height="29" fill="white" transform="translate(124.5 190.5)"/>
</clipPath>
<clipPath id="clip20_4_300">
<rect width="30" height="30" fill="white" transform="translate(193.5 190.5)"/>
</clipPath>
<clipPath id="clip21_4_300">
<rect width="21" height="21" fill="white" transform="translate(263.5 190.5)"/>
</clipPath>
<clipPath id="clip22_4_300">
<rect width="21" height="18" fill="white" transform="translate(324.5 190.5)"/>
</clipPath>
<clipPath id="clip23_4_300">
<rect width="21" height="21" fill="white" transform="translate(0.5 260.5)"/>
</clipPath>
<clipPath id="clip24_4_300">
<rect width="25" height="25" fill="white" transform="translate(61.5 260.5)"/>
</clipPath>
<clipPath id="clip25_4_300">
<rect width="25" height="25" fill="white" transform="translate(126.5 260.5)"/>
</clipPath>
<clipPath id="clip26_4_300">
<rect width="10" height="17" fill="white" transform="translate(191.5 260.5)"/>
</clipPath>
</defs>
</svg>
